<svg xmlns="http://www.w3.org/2000/svg" xmlns:xlink="http://www.w3.org/1999/xlink" width="225" height="400" xmlns:v="https://vecta.io/nano">
  <style><![CDATA[.B{isolation:isolate}.y{fill:#cbd2de}.z{fill:#70edfe}.AA{fill:none}.AB{fill:#3c3c3e}.AC{fill:#0a090d}.AD{fill:#004f9c}]]></style>
  <defs>
    <linearGradient id="A" x1="140.87" y1="30.37" x2="362.4" y2="212.1" xlink:href="#V">
      <stop offset="0" stop-color="#949396"/>
      <stop offset="1" stop-color="#f2f1f7"/>
    </linearGradient>
    <linearGradient id="B" x1="134.59" y1="163.43" x2="209.93" y2="179.42" xlink:href="#V">
      <stop offset="0" stop-color="#3c3839"/>
      <stop offset="1" stop-color="#0a090d"/>
    </linearGradient>
    <linearGradient id="C" x1="168.58" y1="284.43" x2="129.76" y2="167.7" xlink:href="#V">
      <stop offset="0" stop-color="#3c3839"/>
      <stop offset="1" stop-color="#5a5a5c"/>
    </linearGradient>
    <linearGradient id="D" x1="164.51" y1="163.73" x2="165.02" y2="314.68" xlink:href="#B"/>
    <linearGradient id="E" xlink:href="#V">
      <stop offset="0" stop-color="#0a090d"/>
      <stop offset="1" stop-color="#3c3c3e"/>
    </linearGradient>
    <linearGradient id="F" x1="184.08" y1="122.149" x2="185.064" y2="122.149" xlink:href="#E"/>
    <linearGradient id="G" x1="184.08" y1="129.784" x2="185.064" y2="129.784" xlink:href="#E"/>
    <radialGradient id="H" cx="279.86" cy="178.38" r="17.07" xlink:href="#V">
      <stop offset="0" stop-color="#00a6e1"/>
      <stop offset="1" stop-color="#004fc1"/>
    </radialGradient>
    <clipPath>
      <path d="M286.46 183.92l6.42-3.71v.75l-6.42 3.7z" class="AA"/>
    </clipPath>
    <clipPath>
      <path d="M269.09 193.3l1.54-2.5a3.39 3.39 0 0 1 0 .58 4.12 4.12 0 0 1-.2 1.44 1.44 1.44 0 0 1-.64.8.51.51 0 0 1-.46.07.63.63 0 0 1-.24-.39z" class="AA"/>
    </clipPath>
    <clipPath>
      <path d="M270.29 190a.71.71 0 0 1 .26.38L269 192.9v-.25-.3a4.1 4.1 0 0 1 .21-1.44 1.36 1.36 0 0 1 .63-.8.51.51 0 0 1 .45-.11z" class="AA"/>
    </clipPath>
    <clipPath>
      <path d="M269.07 186.2l1.54-2.5a3.39 3.39 0 0 1 0 .58 4 4 0 0 1-.2 1.43 1.46 1.46 0 0 1-.64.81.47.47 0 0 1-.46.06c-.09-.04-.17-.19-.24-.38z" class="AA"/>
    </clipPath>
    <clipPath>
      <path d="M270.27 182.93a.67.67 0 0 1 .26.38L269 185.8v-.25-.3a4.17 4.17 0 0 1 .21-1.44 1.44 1.44 0 0 1 .63-.81.53.53 0 0 1 .43-.07z" class="AA"/>
    </clipPath>
    <clipPath>
      <path d="M293.88 161.14l-32.51 18.77.05 19.9L293.94 181zm-.66 1v1.14l-7.22 4.11v-1.14l7.21-4.16m-9.21 15.3l1.93-1.12 1 1.36-1 2.48-1.93 1.12-1-1.38.95-2.46m-1.09 2.44L281 181l-1-1.37 1-2.47 1.93-1.11 1 1.35-1 2.48m3.17-3.75l1-2.47 1.93-1.11 1 1.35-1 2.48-2.03 1.06-1-1.36m3-3.75l1-2.48 1.94-1.12.95 1.37-.94 2.48-1.94 1.12-1-1.37m-3.14-5.9v.82l-2.13 1.23v-.82l2.12-1.23m-2.35 1.36v.82l-2.27 1.31v-.82l2.28-1.31m-2.51 1.45v.82l-2.08 1.2v-.82l2.08-1.2m-19 16.58l11.62-6.71v.13L262.11 186v-.13M271 184a5.15 5.15 0 0 1-.09 1 2.86 2.86 0 0 1-.23.82 2.83 2.83 0 0 1-.37.64 2.09 2.09 0 0 1-.56.46 1 1 0 0 1-.57.19.37.37 0 0 1-.38-.21 1.07 1.07 0 0 1-.22-.57c0-.23 0-.52-.06-.84a4.43 4.43 0 0 1 .09-1 3 3 0 0 1 .23-.82 2.71 2.71 0 0 1 .38-.64 1.9 1.9 0 0 1 .55-.46 1.05 1.05 0 0 1 .57-.19.39.39 0 0 1 .38.2 1 1 0 0 1 .22.54 7 7 0 0 1 .06.88m-3.93 2.61a1.1 1.1 0 0 0-.68.23l-.32.18v-.3l1-2.07-1.55.89v-.42l2.06-1.19v.42l-1 2h.09a1.89 1.89 0 0 1 .43-.18.6.6 0 0 1 .35 0 .5.5 0 0 1 .23.2 1.46 1.46 0 0 1 .09.42 1.67 1.67 0 0 1-.12.62 2 2 0 0 1-.29.59 2.07 2.07 0 0 1-.42.49 4.36 4.36 0 0 1-.55.41c-.17.1-.31.15-.45.22a2 2 0 0 1-.37.09l.11-.49a1.1 1.1 0 0 0 .32-.06c.12-.06.26-.1.41-.19a3 3 0 0 0 .38-.29 3.24 3.24 0 0 0 .29-.34 1.35 1.35 0 0 0 .19-.38 1 1 0 0 0 .07-.37c0-.27-.09-.42-.27-.44m-3-.08c-.11-.08-.28 0-.49.08a3.63 3.63 0 0 0-.47.34 4.47 4.47 0 0 0-.34.4l-.17-.23a4.4 4.4 0 0 1 .48-.55 6.22 6.22 0 0 1 .58-.43c.32-.18.58-.23.73-.12a.77.77 0 0 1 .24.68 3.67 3.67 0 0 1-.45 1.49 20.37 20.37 0 0 1-1.25 2.18l1.82-1.06v.43l-2.31 1.33v-.42a2.31 2.31 0 0 1 .28-.43l.37-.61.4-.67c.15-.22.26-.47.36-.71a5.72 5.72 0 0 0 .28-.68 1.78 1.78 0 0 0 .11-.56.53.53 0 0 0-.17-.46m-1.61 11.63v-.43a3.66 3.66 0 0 1 .28-.43l.37-.6.4-.67c.15-.23.26-.48.36-.71a6.5 6.5 0 0 0 .28-.68 1.62 1.62 0 0 0 .11-.56c0-.24-.06-.39-.17-.46s-.28 0-.49.08a2.38 2.38 0 0 0-.47.34 4.32 4.32 0 0 0-.34.39l-.17-.22a3.78 3.78 0 0 1 .48-.55 6.22 6.22 0 0 1 .58-.43c.32-.19.58-.24.73-.12a.8.8 0 0 1 .24.68 3.68 3.68 0 0 1-.45 1.48 20.37 20.37 0 0 1-1.25 2.18l1.82-1.05v.42l-2.31 1.34m5.25-3.72a2.44 2.44 0 0 1-.71 1.08 4.36 4.36 0 0 1-.55.41 3.66 3.66 0 0 1-.45.22 1.07 1.07 0 0 1-.37.08l.11-.48a1.1 1.1 0 0 0 .32-.06 1.34 1.34 0 0 0 .41-.19 2.26 2.26 0 0 0 .38-.29 4.56 4.56 0 0 0 .29-.33 1.92 1.92 0 0 0 .19-.38 1.33 1.33 0 0 0 .07-.38c0-.27-.09-.41-.27-.44a1.1 1.1 0 0 0-.68.23l-.32.18v-.29l1-2.08-1.55.89v-.42l2.06-1.19v.42l-1 2h.09a1.89 1.89 0 0 1 .43-.18.6.6 0 0 1 .35 0 .56.56 0 0 1 .23.2 1.39 1.39 0 0 1 .09.42 1.67 1.67 0 0 1-.12.62m3.26-2.37a3 3 0 0 1-.6 1.46 1.92 1.92 0 0 1-.56.46 1.05 1.05 0 0 1-.57.2.41.41 0 0 1-.38-.22 1.07 1.07 0 0 1-.22-.57 7 7 0 0 1-.05-.84 3.9 3.9 0 0 1 .08-1 2.86 2.86 0 0 1 .23-.82 2.71 2.71 0 0 1 .38-.64 1.9 1.9 0 0 1 .55-.46 1.05 1.05 0 0 1 .57-.19.39.39 0 0 1 .38.2 1 1 0 0 1 .22.54 7 7 0 0 1 .06.88 5.15 5.15 0 0 1-.09 1m-8.81.62v-.13l11.62-6.71v.07l-11.62 6.71m15.74-15.92l1.94-1.12 1 1.36-1 2.48-1.94 1.12-1-1.37 1-2.47m-.95 6.55l1-2.47 1.94-1.12 1 1.36-1 2.49-1.94 1.12-1-1.38m2.13 5.58v-.82l2.08-1.2v.82l-2.08 1.2m2.32-1.34v-.81l2.28-1.32v.82l-2.27 1.31m1.51-3.72L281 185l-1-1.36 1-2.49 1.92-1.11 1 1.37-1 2.48m1 2.28v-.82l2.12-1.23v.82l-2.13 1.23m2.2-1.13v-1.14l7.21-4.17v1.15l-7.25 4.12"
            class="AA"/>
    </clipPath>
    <clipPath id="O">
      <path d="M292.83 163.01l-6.42 3.71v-.25l6.42-3.71z" class="AA"/>
    </clipPath>
    <linearGradient xlink:href="#B" id="P"/>
    <linearGradient xlink:href="#E" id="Q" x1="184.08" y1="115.3" x2="185.064" y2="115.3"/>
    <radialGradient xlink:href="#H" id="R"/>
    <radialGradient xlink:href="#H" id="S" gradientTransform="matrix(0.93689245,0,0,0.93689245,-108.34252,-25.871056)"/>
    <path id="T" d="M154.16 191.47a1.2 1.2 0 0 1 .56.94c0 .35-.25.5-.56.32a1.21 1.21 0 0 1-.55-.95c0-.35.25-.49.55-.31z"/>
    <path id="U" d="M180.323 116.537c.534-.309.937-.056.937.562a2.145 2.145 0 0 1-.937 1.677c-.534.309-.937.066-.937-.553a2.136 2.136 0 0 1 .937-1.686z"/>
    <linearGradient id="V" gradientUnits="userSpaceOnUse"/>
  </defs>
  <g class="B" transform="matrix(.936892 0 0 .936892 -108.34252 -25.871054)">
    <path d="M121.95 349l56.96 32.64 6.58 64.09-63.37-37.16z" class="AB"/>
    <path d="M296.33 381.73l-67.43 38.94-.47.27-42.94 24.79-.17-59.57 160.23-47.67.17 14.75-48.92 28.22z" fill="#60b4d8"/>
    <path d="M121.34 132.5l56.95 32.65.62 216.49L121.95 349z" class="AB"/>
    <path d="M281.57 40.02l52.17 30.41-155.45 94.72-56.95-32.65z" fill="url(#A)"/>
    <g class="B">
      <path d="M128.05 160.61l33.27 19.34 6.51-8.03-33.28-19.34z" fill="url(#P)"/>
      <path d="M128.29 245.93l33.27 19.34-.24-85.32-33.27-19.34z" fill="url(#C)"/>
      <g class="AC">
        <path d="M130.9 171.8a1.24 1.24 0 0 1 .4.42 1.12 1.12 0 0 1 .15.54.35.35 0 0 1-.17.34.37.37 0 0 1-.38 0 1.07 1.07 0 0 1-.38-.41 1 1 0 0 1-.16-.54.41.41 0 0 1 .16-.36.28.28 0 0 1 .18 0 .67.67 0 0 1 .2.01zm27.86 16.05a1.22 1.22 0 0 1 .54 1c0 .35-.25.49-.56.32a1.29 1.29 0 0 1-.54-1c0-.35.25-.49.56-.32zm-3.09-1.77a1.2 1.2 0 0 1 .54.94c0 .34-.25.48-.55.32a1.2 1.2 0 0 1-.54-.94.34.34 0 0 1 .55-.32z"/>
        <ellipse cx="152.57" cy="184.93" rx=".44" ry=".77" transform="rotate(329.84 152.572 184.935)"/>
        <path d="M149.49 182.51a1.2 1.2 0 0 1 .54.94c0 .35-.24.5-.54.32a1.21 1.21 0 0 1-.55-1c-.06-.34.24-.48.55-.3z"/>
        <ellipse cx="146.4" cy="181.38" rx=".44" ry=".77" transform="matrix(.86 -.5 .5 .86 -71.31 98.11)"/>
        <path d="M143.35 178.94a1.22 1.22 0 0 1 .54.95c0 .34-.24.49-.56.31a1.2 1.2 0 0 1-.54-.94c0-.36.22-.5.56-.32z"/>
        <ellipse cx="140.21" cy="177.8" rx=".44" ry=".77" transform="rotate(329.84 140.222 177.806)"/>
        <path d="M137.14 175.37a1.23 1.23 0 0 1 .55 1c0 .34-.25.48-.55.31a1.22 1.22 0 0 1-.56-.95c0-.4.25-.52.56-.36z"/>
        <ellipse cx="134.04" cy="174.23" rx=".44" ry=".77" transform="rotate(329.84 134.04 174.229)"/>
        <path d="M132.56 174.61a1.27 1.27 0 0 1 .4.4 1.2 1.2 0 0 1 .15.56.36.36 0 0 1-.17.34.37.37 0 0 1-.38 0 1.38 1.38 0 0 1-.39-.41 1.08 1.08 0 0 1-.17-.5.39.39 0 0 1 .15-.36.28.28 0 0 1 .18 0 .38.38 0 0 1 .21 0zm24.72 14.23a1.24 1.24 0 0 1 .54 1c0 .33-.25.48-.56.3a1.26 1.26 0 0 1-.54-.94c0-.32.25-.45.56-.32zm-3.1-1.75a1.21 1.21 0 0 1 .55.95.34.34 0 0 1-.55.31 1.25 1.25 0 0 1-.56-.94c0-.36.25-.49.56-.32zm-3.09-1.79a1.18 1.18 0 0 1 .54 1c0 .33-.23.48-.54.3a1.18 1.18 0 0 1-.55-.94c0-.36.25-.48.55-.32zm-3.09-1.77a1.2 1.2 0 0 1 .54.94c0 .35-.25.49-.56.31a1.16 1.16 0 0 1-.53-.94c.05-.35.25-.53.55-.31zm-3.08-1.78a1.2 1.2 0 0 1 .54.94c0 .34-.25.48-.55.32a1.2 1.2 0 0 1-.54-.94c0-.36.24-.5.55-.32zm-3.09-1.75a1.21 1.21 0 0 1 .55.94c0 .35-.25.49-.55.32a1.22 1.22 0 0 1-.56-.95c0-.35.25-.49.56-.31zm-3.09-1.82a1.2 1.2 0 0 1 .55.95c0 .34-.25.47-.55.31a1.24 1.24 0 0 1-.55-.94c0-.36.25-.5.55-.32zm-3.08-1.78a1.2 1.2 0 0 1 .54.95c0 .33-.24.48-.56.3a1.23 1.23 0 0 1-.54-.94c0-.31.25-.49.56-.31zm-4.76-.23a1.34 1.34 0 0 1 .4.42 1.25 1.25 0 0 1 .15.54.35.35 0 0 1-.15.34.41.41 0 0 1-.4 0 1.07 1.07 0 0 1-.38-.41 1 1 0 0 1-.16-.54.37.37 0 0 1 .16-.35zm27.84 16.06a1.15 1.15 0 0 1 .54.94c0 .35-.25.5-.54.32a1.21 1.21 0 0 1-.55-1c0-.35.25-.49.55-.31zm-3.08-1.78a1.2 1.2 0 0 1 .54.94c0 .35-.25.5-.56.32a1.2 1.2 0 0 1-.54-.94c0-.35.25-.54.56-.32zm-3.1-1.79a1.22 1.22 0 0 1 .55 1c0 .33-.25.48-.55.3a1.17 1.17 0 0 1-.56-.96c0-.36.24-.49.54-.31zm-3.09-1.78a1.15 1.15 0 0 1 .54 1c0 .33-.23.48-.54.3a1.24 1.24 0 0 1-.55-.94c0-.36.25-.49.55-.32zm-3.08-1.78a1.21 1.21 0 0 1 .55 1 .35.35 0 0 1-.3.39.37.37 0 0 1-.25-.07 1.23 1.23 0 0 1-.55-1 .34.34 0 0 1 .55-.32zm-3.04-1.79a1.24 1.24 0 0 1 .54 1c0 .34-.24.48-.56.31a1.2 1.2 0 0 1-.54-1c-.04-.31.21-.47.56-.31zm-3.14-1.78a1.21 1.21 0 0 1 .55.95c0 .35-.25.49-.55.32a1.23 1.23 0 0 1-.54-1c0-.3.25-.44.54-.27zm-3.09-1.77a1.19 1.19 0 0 1 .56.94c0 .34-.25.48-.56.32a1.25 1.25 0 0 1-.55-1c0-.34.25-.48.55-.3zM134 178a1.21 1.21 0 0 1 .55.94c0 .35-.25.5-.55.32a1.24 1.24 0 0 1-.56-.95c0-.35.25-.5.56-.31zm-1.46 1a1.24 1.24 0 0 1 .4.42 1.13 1.13 0 0 1 .16.54.33.33 0 0 1-.27.38.34.34 0 0 1-.29-.08 1.12 1.12 0 0 1-.38-.4 1.17 1.17 0 0 1-.16-.54.42.42 0 0 1 .16-.36h.19a.41.41 0 0 1 .19 0z"/>
        <ellipse cx="157.24" cy="193.9" rx=".44" ry=".77" transform="rotate(329.84 157.243 193.896)"/>
        <use xlink:href="#T"/>
        <ellipse cx="151.08" cy="190.32" rx=".44" ry=".77" transform="rotate(329.84 151.08 190.325)"/>
        <path d="M148 187.9a1.22 1.22 0 0 1 .54.94c0 .35-.24.5-.54.32a1.24 1.24 0 0 1-.55-.94c.05-.36.24-.5.55-.32z"/>
        <ellipse cx="144.9" cy="186.77" rx=".44" ry=".77" transform="rotate(329.84 144.911 186.772)"/>
        <ellipse cx="141.81" cy="184.98" rx=".44" ry=".77" transform="rotate(329.84 141.811 184.981)"/>
        <path d="M138.73 182.55a1.23 1.23 0 0 1 .55 1c0 .34-.25.48-.55.31a1.22 1.22 0 0 1-.56-.95c.02-.39.25-.53.56-.36z"/>
        <ellipse cx="135.64" cy="181.41" rx=".44" ry=".77" transform="rotate(329.84 135.629 181.405)"/>
        <path d="M130.9 180.55a1.32 1.32 0 0 1 .38.4 1 1 0 0 1 .16.55.42.42 0 0 1-.16.35.47.47 0 0 1-.4 0 1.25 1.25 0 0 1-.37-.42 1.14 1.14 0 0 1-.17-.54.43.43 0 0 1 .17-.36h.18a.38.38 0 0 1 .21 0zm27.83 16.06a1.14 1.14 0 0 1 .54.95c0 .35-.24.48-.54.32a1.22 1.22 0 0 1-.55-1c0-.32.24-.44.55-.27zm-3.09-1.78a1.15 1.15 0 0 1 .54.95c0 .34-.25.48-.55.31a1.22 1.22 0 0 1-.54-1c0-.35.25-.49.55-.31z"/>
        <ellipse cx="152.54" cy="193.7" rx=".44" ry=".77" transform="rotate(329.84 152.538 193.703)"/>
        <path d="M149.46 191.27a1.16 1.16 0 0 1 .55.94c0 .34-.24.49-.55.31a1.21 1.21 0 0 1-.55-1c0-.35.25-.48.55-.3z"/>
        <ellipse cx="146.38" cy="190.14" rx=".44" ry=".77" transform="rotate(329.84 146.375 190.132)"/>
        <path d="M143.35 187.7a1.2 1.2 0 0 1 .54.94c0 .34-.24.5-.56.32a1.28 1.28 0 0 1-.54-1c-.05-.3.21-.5.56-.26z"/>
        <ellipse cx="140.19" cy="186.56" rx=".44" ry=".77" transform="rotate(329.84 140.193 186.555)"/>
        <path d="M137.11 184.13a1.21 1.21 0 0 1 .55 1c0 .35-.25.49-.55.32a1.22 1.22 0 0 1-.54-1c0-.36.23-.45.54-.32zm-4.58-.82a1.18 1.18 0 0 1 .4.4 1.15 1.15 0 0 1 .15.54.38.38 0 0 1-.15.36.41.41 0 0 1-.4 0 1.38 1.38 0 0 1-.39-.41 1.2 1.2 0 0 1-.15-.53.38.38 0 0 1 .17-.36.28.28 0 0 1 .18 0zm24.72 14.32a1.22 1.22 0 0 1 .54 1c0 .34-.25.49-.55.31a1.15 1.15 0 0 1-.54-.94c0-.36.24-.49.55-.32zm-3.1-1.79a1.18 1.18 0 0 1 .55 1c0 .33-.25.48-.55.3a1.2 1.2 0 0 1-.55-.94c0-.4.25-.5.55-.32zm-3.08-1.78a1.23 1.23 0 0 1 .55.95.34.34 0 0 1-.55.32 1.24 1.24 0 0 1-.56-1c0-.33.25-.44.56-.27zm-3.07-1.78a1.2 1.2 0 0 1 .54.95.33.33 0 0 1-.26.39.35.35 0 0 1-.28-.07 1.25 1.25 0 0 1-.55-1c.05-.3.23-.44.55-.27zm-3.1-1.78a1.2 1.2 0 0 1 .54.95c0 .34-.25.49-.56.31a1.22 1.22 0 0 1-.54-.95c0-.35.24-.49.56-.31zm-3.1-1.78a1.16 1.16 0 0 1 .55.94.36.36 0 0 1-.3.39.37.37 0 0 1-.25-.07 1.24 1.24 0 0 1-.56-1c0-.34.27-.48.56-.3zm-3.09-1.78a1.18 1.18 0 0 1 .56.95c0 .33-.25.48-.56.3a1.17 1.17 0 0 1-.54-.94c0-.36.24-.49.54-.31zm-3.08-1.79a1.2 1.2 0 0 1 .54.94c0 .35-.24.5-.54.32a1.25 1.25 0 0 1-.56-.94c-.02-.36.25-.47.56-.32zm-4.73-.22a1.18 1.18 0 0 1 .38.42 1 1 0 0 1 .16.53.39.39 0 0 1-.16.35.37.37 0 0 1-.38 0 1 1 0 0 1-.39-.41 1.31 1.31 0 0 1-.17-.54.4.4 0 0 1 .17-.35.28.28 0 0 1 .18 0 .74.74 0 0 1 .21 0zM158.72 201a1.21 1.21 0 0 1 .55.94c0 .35-.25.48-.55.32a1.24 1.24 0 0 1-.56-1c0-.34.25-.48.56-.3zm-3.09-1.79a1.2 1.2 0 0 1 .54.94.33.33 0 0 1-.54.31 1.22 1.22 0 0 1-.55-.94c0-.36.25-.52.55-.31z"/>
        <ellipse cx="152.55" cy="198.07" rx=".44" ry=".77" transform="rotate(329.84 152.538 198.062)"/>
        <path d="M149.45 195.64a1.22 1.22 0 0 1 .55.94c0 .34-.25.5-.55.32a1.22 1.22 0 0 1-.56-1c-.01-.3.27-.44.56-.26z"/>
        <ellipse cx="146.36" cy="194.51" rx=".44" ry=".77" transform="rotate(329.84 146.37 194.509)"/>
        <path d="M143.35 192.07a1.22 1.22 0 0 1 .54 1c0 .33-.24.49-.54.31a1.2 1.2 0 0 1-.56-.94c-.07-.35.18-.5.56-.32zm-6.24-3.57a1.29 1.29 0 0 1 .54.95c0 .35-.25.49-.56.32a1.22 1.22 0 0 1-.54-1c0-.3.25-.44.56-.27z"/>
        <ellipse cx="134" cy="187.36" rx=".44" ry=".77" transform="matrix(.86 -.5 .5 .86 -75.99 92.69)"/>
        <path d="M132.52 187.74a1.21 1.21 0 0 1 .4.41 1.15 1.15 0 0 1 .15.54.39.39 0 0 1-.15.35.41.41 0 0 1-.4 0 1.13 1.13 0 0 1-.54-.94.39.39 0 0 1 .16-.36.28.28 0 0 1 .18 0 .34.34 0 0 1 .2 0z"/>
        <ellipse cx="157.23" cy="202.64" rx=".44" ry=".77" transform="rotate(329.84 157.233 202.651)"/>
        <path d="M154.14 200.22a1.21 1.21 0 0 1 .55.95c0 .35-.25.5-.55.32a1.24 1.24 0 0 1-.56-1c.02-.3.25-.44.56-.27z"/>
        <ellipse cx="151.04" cy="199.08" rx=".44" ry=".77" transform="matrix(.86 -.5 .5 .86 -79.58 102.84)"/>
        <path d="M148 196.66a1.21 1.21 0 0 1 .55.94.34.34 0 0 1-.55.32 1.24 1.24 0 0 1-.56-1c0-.34.25-.48.56-.3z"/>
        <ellipse cx="144.87" cy="195.51" rx=".44" ry=".77" transform="rotate(329.84 144.864 195.517)"/>
        <ellipse cx="141.78" cy="193.73" rx=".44" ry=".77" transform="rotate(329.84 141.782 193.731)"/>
        <path d="M138.71 191.31a1.22 1.22 0 0 1 .54.95c0 .35-.25.49-.55.31a1.2 1.2 0 0 1-.54-.94c0-.35.25-.49.55-.32z"/>
        <ellipse cx="135.61" cy="190.17" rx=".44" ry=".77" transform="rotate(329.84 135.614 190.178)"/>
        <path d="M130.9 189.32a1.32 1.32 0 0 1 .38.4 1 1 0 0 1 .16.55.31.31 0 0 1-.22.39.3.3 0 0 1-.32-.09 1 1 0 0 1-.39-.4 1.27 1.27 0 0 1-.17-.54.43.43 0 0 1 .17-.36.28.28 0 0 1 .18 0 .41.41 0 0 1 .21.05zm27.8 16.04a1.21 1.21 0 0 1 .55 1c0 .34-.24.48-.55.3a1.21 1.21 0 0 1-.55-.94c0-.36.25-.48.55-.32zm-3.08-1.78a1.16 1.16 0 0 1 .54.95c0 .35-.25.49-.54.32a1.24 1.24 0 0 1-.56-.95c.02-.35.25-.49.56-.32zm-3.09-1.77a1.12 1.12 0 0 1 .54.94.34.34 0 0 1-.54.32 1.21 1.21 0 0 1-.55-1c0-.35.23-.48.55-.3zm-3.1-1.81a1.18 1.18 0 0 1 .56 1c0 .35-.25.5-.56.32a1.23 1.23 0 0 1-.55-.95c0-.46.26-.46.55-.37zm-3.08-1.76a1.18 1.18 0 0 1 .55.94c0 .34-.25.5-.55.32a1.22 1.22 0 0 1-.54-.94c0-.36.3-.5.54-.32zm-3.09-1.79a1.15 1.15 0 0 1 .54.94c0 .35-.23.5-.54.32a1.23 1.23 0 0 1-.55-1c0-.35.25-.49.55-.31zm-3.08-1.78a1.2 1.2 0 0 1 .54.94c0 .34-.25.5-.54.32a1.21 1.21 0 0 1-.55-.94c0-.36.24-.49.55-.32zm-3.09-1.79a1.24 1.24 0 0 1 .54 1c0 .33-.25.48-.55.3a1.19 1.19 0 0 1-.54-.94c0-.36.25-.5.55-.32zM134 191.1a1.23 1.23 0 0 1 .55 1c0 .35-.25.49-.55.32a1.17 1.17 0 0 1-.54-1c0-.36.2-.5.54-.32zm-1.48 1.01a1.15 1.15 0 0 1 .38.41 1.17 1.17 0 0 1 .16.54.36.36 0 0 1-.56.36 1 1 0 0 1-.37-.41 1.11 1.11 0 0 1-.17-.53.38.38 0 0 1 .17-.36h.39z"/>
        <ellipse cx="157.22" cy="207.04" rx=".44" ry=".77" transform="rotate(329.84 157.222 207.047)"/>
        <path d="M154.12 204.6a1.2 1.2 0 0 1 .56 1c0 .33-.25.48-.56.3a1.16 1.16 0 0 1-.54-.94c0-.36.24-.5.54-.32z"/>
        <ellipse cx="151.03" cy="203.46" rx=".44" ry=".77" transform="rotate(329.84 151.041 203.471)"/>
        <path d="M148 201a1.22 1.22 0 0 1 .56 1 .34.34 0 0 1-.3.38.36.36 0 0 1-.26-.07 1.21 1.21 0 0 1-.55-1c-.05-.31.2-.44.55-.31z"/>
        <ellipse cx="144.86" cy="199.89" rx=".44" ry=".77" transform="rotate(329.84 144.859 199.894)"/>
        <ellipse cx="141.77" cy="198.11" rx=".44" ry=".77" transform="rotate(329.84 141.777 198.109)"/>
        <path d="M138.7 195.76a1.2 1.2 0 0 1 .54.94c0 .35-.25.5-.55.32a1.2 1.2 0 0 1-.54-.94c0-.43.24-.57.55-.32z"/>
        <ellipse cx="135.6" cy="194.54" rx=".44" ry=".77" transform="rotate(329.84 135.595 194.532)"/>
        <path d="M130.9 193.69a1.07 1.07 0 0 1 .38.41 1 1 0 0 1 .17.54.36.36 0 0 1-.17.35.42.42 0 0 1-.38 0 1.05 1.05 0 0 1-.39-.42 1.27 1.27 0 0 1-.17-.54.38.38 0 0 1 .17-.34.28.28 0 0 1 .18 0 .38.38 0 0 1 .21 0zm27.79 16.04a1.25 1.25 0 0 1 .55 1c0 .34-.25.48-.55.32a1.26 1.26 0 0 1-.56-1 .36.36 0 0 1 .3-.39.39.39 0 0 1 .26.07zM155.6 208a1.22 1.22 0 0 1 .56.94.35.35 0 0 1-.3.39.36.36 0 0 1-.26-.07 1.22 1.22 0 0 1-.54-.95c0-.35.24-.49.54-.31zm-6.18-3.61a1.18 1.18 0 0 1 .55.94c0 .35-.25.5-.55.32a1.19 1.19 0 0 1-.54-1c0-.3.25-.44.54-.26z"/>
        <ellipse cx="146.34" cy="203.27" rx=".44" ry=".77" transform="rotate(329.84 146.341 203.259)"/>
        <path d="M143.25 200.82a1.22 1.22 0 0 1 .55 1c0 .33-.25.48-.55.3a1.16 1.16 0 0 1-.55-.94c0-.36.25-.5.55-.32z"/>
        <ellipse cx="140.16" cy="199.68" rx=".44" ry=".77" transform="rotate(329.84 140.159 199.683)"/>
        <path d="M137.08 197.26a1.22 1.22 0 0 1 .54 1c0 .35-.25.48-.55.32a1.24 1.24 0 0 1-.54-1c0-.35.25-.44.55-.32z"/>
        <ellipse cx="133.98" cy="196.12" rx=".44" ry=".77" transform="rotate(329.84 133.972 196.125)"/>
        <path d="M132.49 196.48a1.27 1.27 0 0 1 .4.43 1.08 1.08 0 0 1 .15.53.37.37 0 0 1-.15.35.41.41 0 0 1-.4 0 1.07 1.07 0 0 1-.38-.41 1 1 0 0 1-.16-.53.39.39 0 0 1 .16-.36.28.28 0 0 1 .18 0 .67.67 0 0 1 .2-.01zm24.69 14.28a1.21 1.21 0 0 1 .55 1 .35.35 0 0 1-.3.39.37.37 0 0 1-.25-.07 1.23 1.23 0 0 1-.55-1c.02-.35.27-.49.55-.32zm-3.07-1.76a1.21 1.21 0 0 1 .55 1c0 .34-.23.48-.55.3a1.2 1.2 0 0 1-.54-.94c0-.35.25-.48.54-.32zm-3.11-1.81a1.22 1.22 0 0 1 .56.95c0 .35-.25.49-.56.32a1.22 1.22 0 0 1-.54-1c.02-.3.27-.46.54-.27zm-3.06-1.75a1.19 1.19 0 0 1 .55.95c0 .34-.25.48-.55.31a1.19 1.19 0 0 1-.55-.95c0-.31.25-.51.55-.31z"/>
        <use xlink:href="#T" x="-9.31" y="12.16"/>
        <path d="M141.76 201.85a1.18 1.18 0 0 1 .55.94c0 .34-.25.5-.55.32a1.24 1.24 0 0 1-.54-1c0-.34.25-.48.54-.3zm-3.07-1.79a1.26 1.26 0 0 1 .53 1c0 .33-.24.48-.55.3a1.2 1.2 0 0 1-.54-.94c0-.34.25-.47.56-.32zm-3.1-1.78a1.16 1.16 0 0 1 .55.95c0 .34-.25.49-.55.31a1.22 1.22 0 0 1-.56-.94c0-.36.25-.5.56-.32zm-4.69-.21a1.12 1.12 0 0 1 .38.4 1 1 0 0 1 .17.56.32.32 0 0 1-.26.38.33.33 0 0 1-.29-.08 1.15 1.15 0 0 1-.39-.4 1.31 1.31 0 0 1-.17-.54.4.4 0 0 1 .17-.36.28.28 0 0 1 .18 0 .52.52 0 0 1 .21.04zm27.77 16.05a1.2 1.2 0 0 1 .56.95c0 .33-.25.49-.56.31a1.21 1.21 0 0 1-.55-.94c0-.36.26-.49.55-.32zm-3.08-1.76a1.21 1.21 0 0 1 .55 1c0 .34-.26.48-.55.3a1.2 1.2 0 0 1-.54-.94c0-.32.23-.51.54-.32z"/>
        <ellipse cx="152.49" cy="211.2" rx=".44" ry=".77" transform="rotate(329.84 152.504 211.19)"/>
        <path d="M149.41 208.76a1.21 1.21 0 0 1 .55 1c0 .34-.24.48-.55.32a1.24 1.24 0 0 1-.54-1c.01-.36.25-.48.54-.32z"/>
        <ellipse cx="146.32" cy="207.63" rx=".44" ry=".77" transform="rotate(329.84 146.317 207.632)"/>
        <path d="M143.24 205.21a1.24 1.24 0 0 1 .55.94c0 .35-.25.5-.55.32a1.26 1.26 0 0 1-.56-1c0-.34.25-.48.56-.3zm-6.17-3.57a1.22 1.22 0 0 1 .54 1c0 .34-.25.49-.54.31a1.22 1.22 0 0 1-.56-.94c0-.36.25-.5.56-.32zm-4.58-.77a1.18 1.18 0 0 1 .39.41 1.12 1.12 0 0 1 .15.54.44.44 0 0 1-.15.36.39.39 0 0 1-.39 0 1 1 0 0 1-.39-.42 1.11 1.11 0 0 1-.17-.53.45.45 0 0 1 .17-.36.28.28 0 0 1 .18 0 .37.37 0 0 1 .21 0z"/>
        <ellipse cx="157.2" cy="215.8" rx=".44" ry=".77" transform="rotate(329.84 157.194 215.797)"/>
        <path d="M154.11 213.36a1.2 1.2 0 0 1 .54.94c0 .34-.24.5-.55.32a1.22 1.22 0 0 1-.54-.94c0-.36.24-.5.55-.32z"/>
        <ellipse cx="151.01" cy="212.22" rx=".44" ry=".77" transform="matrix(.86 -.5 .5 .86 -86.18 104.6)"/>
        <path d="M147.93 209.79a1.21 1.21 0 0 1 .55 1c0 .35-.25.49-.55.31a1.2 1.2 0 0 1-.56-.94c0-.36.25-.52.56-.32z"/>
        <ellipse cx="144.84" cy="208.65" rx=".44" ry=".77" transform="rotate(329.84 144.849 208.649)"/>
        <ellipse cx="141.73" cy="206.87" rx=".44" ry=".77" transform="rotate(329.84 141.725 206.872)"/>
        <path d="M138.67 204.45a1.2 1.2 0 0 1 .54.94.34.34 0 0 1-.54.32 1.25 1.25 0 0 1-.55-1c0-.34.25-.48.55-.3z"/>
        <ellipse cx="135.57" cy="203.3" rx=".44" ry=".77" transform="rotate(329.84 135.58 203.306)"/>
        <path d="M130.9 202.44a1.18 1.18 0 0 1 .38.42 1 1 0 0 1 .17.54.35.35 0 0 1-.17.34.37.37 0 0 1-.38 0 1.38 1.38 0 0 1-.39-.41 1.31 1.31 0 0 1-.17-.54.4.4 0 0 1 .17-.35.31.31 0 0 1 .19 0zm27.76 16.05a1.23 1.23 0 0 1 .55.95c0 .35-.25.49-.55.32a1.22 1.22 0 0 1-.54-.95c0-.35.25-.49.54-.32zm-3.08-1.79a1.25 1.25 0 0 1 .55 1c0 .34-.25.48-.55.32a1.18 1.18 0 0 1-.54-1c-.04-.34.23-.51.54-.32z"/>
        <ellipse cx="152.48" cy="215.58" rx=".44" ry=".77" transform="rotate(329.84 152.475 215.581)"/>
        <path d="M149.41 213.15a1.2 1.2 0 0 1 .54.94c0 .35-.24.5-.56.32a1.3 1.3 0 0 1-.54-1c0-.34.25-.48.56-.3z"/>
        <ellipse cx="146.31" cy="212.01" rx=".44" ry=".77" transform="rotate(329.84 146.312 212.009)"/>
        <path d="M143.22 209.59a1.2 1.2 0 0 1 .56.94c0 .35-.25.5-.56.32a1.22 1.22 0 0 1-.55-.94c0-.32.25-.51.55-.32z"/>
        <ellipse cx="140.14" cy="208.44" rx=".44" ry=".77" transform="rotate(329.84 140.149 208.438)"/>
        <path d="M137.05 206a1.17 1.17 0 0 1 .54 1c0 .34-.25.48-.54.3a1.21 1.21 0 0 1-.55-.94c0-.35.25-.48.55-.32z"/>
        <ellipse cx="133.97" cy="204.88" rx=".44" ry=".77" transform="rotate(329.84 133.962 204.88)"/>
        <path d="M132.46 205.24a1 1 0 0 1 .4.43.88.88 0 0 1 .15.52.36.36 0 0 1-.15.36.39.39 0 0 1-.39 0 1.35 1.35 0 0 1-.38-.41 1.11 1.11 0 0 1-.17-.53.4.4 0 0 1 .17-.36h.37z"/>
        <ellipse cx="157.18" cy="220.17" rx=".44" ry=".77" transform="rotate(329.84 157.17 220.169)"/>
        <path d="M154.1 217.73a1.18 1.18 0 0 1 .53 1c0 .33-.23.49-.55.31a1.2 1.2 0 0 1-.54-.94c0-.35.25-.5.56-.32z"/>
        <ellipse cx="151" cy="216.6" rx=".44" ry=".77" transform="rotate(329.84 151.007 216.598)"/>
        <path d="M147.91 214.16a1.24 1.24 0 0 1 .56 1c0 .35-.25.49-.56.32a1.22 1.22 0 0 1-.54-1c0-.35.24-.48.54-.32z"/>
        <ellipse cx="144.82" cy="213.02" rx=".44" ry=".77" transform="rotate(329.84 144.825 213.022)"/>
        <path d="M138.66 208.82a1.21 1.21 0 0 1 .55.94c0 .35-.26.5-.55.32a1.25 1.25 0 0 1-.56-.94c0-.36.25-.5.56-.32z"/>
        <ellipse cx="135.56" cy="207.67" rx=".44" ry=".77" transform="rotate(329.84 135.561 207.659)"/>
        <path d="M130.9 206.83a.92.92 0 0 1 .38.4 1 1 0 0 1 .17.54.38.38 0 0 1-.17.36.42.42 0 0 1-.38 0 1.31 1.31 0 0 1-.39-.42 1 1 0 0 1-.15-.52.37.37 0 0 1 .16-.36.19.19 0 0 1 .18 0 .34.34 0 0 1 .2 0zm27.75 16.04a1.24 1.24 0 0 1 .55.94c0 .35-.25.5-.55.32a1.2 1.2 0 0 1-.54-.94c0-.36.25-.5.54-.32zm-3.09-1.78a1.2 1.2 0 0 1 .55.95c0 .34-.24.49-.55.31a1.2 1.2 0 0 1-.54-.94c0-.36.24-.5.54-.32zm-3.08-1.81a1.21 1.21 0 0 1 .55.95c0 .35-.25.49-.55.31a1.2 1.2 0 0 1-.56-.94c0-.32.25-.47.56-.32zm-3.09-1.76a1.2 1.2 0 0 1 .54 1c0 .34-.23.48-.55.3a1.21 1.21 0 0 1-.5-.89c0-.45.21-.58.51-.41zm-3.08-1.77a1.2 1.2 0 0 1 .54.94c0 .35-.25.48-.54.32a1.24 1.24 0 0 1-.56-1c0-.34.25-.48.56-.3zm-3.1-1.75a1.12 1.12 0 0 1 .55.94c0 .34-.25.49-.55.31a1.15 1.15 0 0 1-.54-.95c0-.35.23-.53.54-.3zm-3.09-1.82a1.2 1.2 0 0 1 .56.94c0 .35-.25.5-.56.32a1.23 1.23 0 0 1-.55-.95c0-.35.26-.49.55-.31zM137 210.4a1.18 1.18 0 0 1 .55.94c0 .34-.26.5-.55.32a1.21 1.21 0 0 1-.55-.95c-.02-.35.28-.49.55-.31zm-3-1.79a1.17 1.17 0 0 1 .54 1c0 .33-.23.48-.54.3a1.2 1.2 0 0 1-.55-.94c0-.36.26-.5.55-.32zm-1.54.98a1.21 1.21 0 0 1 .39.42 1 1 0 0 1 .16.54.35.35 0 0 1-.16.34.39.39 0 0 1-.39 0 1.18 1.18 0 0 1-.39-.41 1 1 0 0 1-.15-.54.41.41 0 0 1 .15-.36.54.54 0 0 1 .18 0 .5.5 0 0 1 .21.01z"/>
        <ellipse cx="157.16" cy="224.53" rx=".44" ry=".77" transform="rotate(329.84 157.17 224.528)"/>
        <path d="M154.08 222.11a1.2 1.2 0 0 1 .54.94c0 .35-.23.5-.54.32a1.21 1.21 0 0 1-.55-1c0-.38.25-.49.55-.31z"/>
        <ellipse cx="151" cy="220.98" rx=".44" ry=".77" transform="rotate(329.84 151.001 220.975)"/>
        <path d="M147.9 218.54a1.25 1.25 0 0 1 .55 1c0 .33-.25.48-.55.3a1.15 1.15 0 0 1-.54-.94c0-.36.25-.5.54-.32z"/>
        <ellipse cx="144.81" cy="217.41" rx=".44" ry=".77" transform="rotate(329.84 144.815 217.418)"/>
        <ellipse cx="141.72" cy="215.62" rx=".44" ry=".77" transform="rotate(329.84 141.714 215.627)"/>
        <path d="M138.64 213.2a1.2 1.2 0 0 1 .56 1 .35.35 0 0 1-.3.38.36.36 0 0 1-.26-.07 1.21 1.21 0 0 1-.55-1c0-.35.25-.49.55-.31z"/>
        <ellipse cx="135.54" cy="212.06" rx=".44" ry=".77" transform="rotate(329.84 135.533 212.05)"/>
        <path d="M130.9 211.2a1.21 1.21 0 0 1 .4.41 1.15 1.15 0 0 1 .15.54.35.35 0 0 1-.17.35.37.37 0 0 1-.38 0 1.35 1.35 0 0 1-.39-.4 1.15 1.15 0 0 1-.15-.54.39.39 0 0 1 .16-.36.28.28 0 0 1 .18 0 .34.34 0 0 1 .2 0zm27.75 16.05a1.2 1.2 0 0 1 .54.95c0 .33-.25.48-.56.3a1.26 1.26 0 0 1-.54-.94c0-.34.25-.48.56-.31zm-3.1-1.79a1.23 1.23 0 0 1 .55 1c0 .34-.25.48-.55.31a1.22 1.22 0 0 1-.54-.95c-.01-.39.23-.53.54-.36z"/>
        <ellipse cx="152.45" cy="224.32" rx=".44" ry=".77" transform="matrix(.86 -.5 .5 .86 -92.07 106.96)"/>
        <path d="M149.38 221.89a1.24 1.24 0 0 1 .54 1c0 .34-.24.49-.56.31a1.28 1.28 0 0 1-.54-.95c.06-.39.25-.52.56-.36z"/>
        <ellipse cx="146.28" cy="220.75" rx=".44" ry=".77" transform="rotate(329.84 146.283 220.759)"/>
        <path d="M143.19 218.34a1.17 1.17 0 0 1 .56.94c0 .34-.24.5-.56.32a1.2 1.2 0 0 1-.53-1c0-.34.23-.48.53-.3z"/>
        <ellipse cx="140.1" cy="217.19" rx=".44" ry=".77" transform="rotate(329.84 140.096 217.201)"/>
        <path d="M137 214.77a1.21 1.21 0 0 1 .55.95.34.34 0 0 1-.27.39.32.32 0 0 1-.28-.11 1.2 1.2 0 0 1-.56-.94c0-.36.25-.5.56-.32z"/>
        <ellipse cx="133.93" cy="213.64" rx=".44" ry=".77" transform="matrix(.86 -.5 .5 .86 -89.2 96.21)"/>
        <path d="M132.45 214a1.39 1.39 0 0 1 .4.4 1.25 1.25 0 0 1 .15.54.4.4 0 0 1-.17.36.42.42 0 0 1-.38 0 1.31 1.31 0 0 1-.39-.42 1.08 1.08 0 0 1-.15-.52.38.38 0 0 1 .15-.36.28.28 0 0 1 .18 0 .38.38 0 0 1 .21 0z"/>
        <ellipse cx="157.16" cy="228.93" rx=".44" ry=".77" transform="rotate(329.84 157.16 228.924)"/>
        <path d="M154.07 226.48a1.2 1.2 0 0 1 .54 1c0 .34-.24.49-.54.31a1.23 1.23 0 0 1-.56-.94c0-.41.25-.55.56-.37z"/>
        <ellipse cx="150.98" cy="225.34" rx=".44" ry=".77" transform="rotate(329.84 150.978 225.348)"/>
        <path d="M147.9 222.92a1.28 1.28 0 0 1 .54 1c0 .35-.25.48-.56.32a1.24 1.24 0 0 1-.54-1c0-.35.25-.49.56-.32z"/>
        <ellipse cx="144.8" cy="221.78" rx=".44" ry=".77" transform="rotate(329.84 144.796 221.771)"/>
        <ellipse cx="141.71" cy="219.99" rx=".44" ry=".77" transform="matrix(.86 -.5 .5 .86 -91.34 100.98)"/>
        <path d="M138.63 217.58a1.16 1.16 0 0 1 .55.94.33.33 0 0 1-.3.38.32.32 0 0 1-.25-.07 1.21 1.21 0 0 1-.55-1c0-.35.25-.48.55-.3zm-7.73-2.01a1.18 1.18 0 0 1 .55 1 .36.36 0 0 1-.55.36 1.07 1.07 0 0 1-.38-.41 1 1 0 0 1-.16-.54.37.37 0 0 1 .16-.35.54.54 0 0 1 .18 0zm27.73 16.06a1.17 1.17 0 0 1 .54.94c0 .35-.25.5-.55.32a1.24 1.24 0 0 1-.54-1c0-.34.25-.48.55-.3zm-3.08-1.78a1.26 1.26 0 0 1 .54.94c0 .34-.25.49-.56.31a1.17 1.17 0 0 1-.54-.94c.01-.36.25-.49.56-.31zm-3.1-1.79a1.21 1.21 0 0 1 .55 1c0 .33-.25.48-.55.3a1.15 1.15 0 0 1-.54-.94c0-.36.23-.5.54-.32zm-3.09-1.78a1.17 1.17 0 0 1 .54.95c0 .33-.23.49-.54.31a1.21 1.21 0 0 1-.55-.94c.07-.41.25-.49.55-.32zm-3.08-1.79a1.21 1.21 0 0 1 .55 1 .33.33 0 0 1-.3.38.32.32 0 0 1-.25-.06 1.22 1.22 0 0 1-.55-1c0-.36.27-.48.55-.32zm-3.09-1.78a1.17 1.17 0 0 1 .54.95c0 .35-.23.5-.55.32a1.22 1.22 0 0 1-.54-.95c0-.36.25-.49.55-.32zm-3.09-1.77a1.16 1.16 0 0 1 .55.94c0 .34-.25.48-.55.32a1.21 1.21 0 0 1-.54-1c0-.34.25-.48.54-.3zm-3.1-1.79a1.18 1.18 0 0 1 .55.94c0 .35-.24.49-.55.32a1.23 1.23 0 0 1-.55-.95c0-.35.25-.49.55-.31zm-3.07-1.78a1.24 1.24 0 0 1 .55.94c0 .34-.25.5-.55.32a1.2 1.2 0 0 1-.56-.94.34.34 0 0 1 .56-.32zm-1.5 1.01a1.05 1.05 0 0 1 .4.41 1.17 1.17 0 0 1 .16.54.4.4 0 0 1-.17.35.39.39 0 0 1-.39 0 1.18 1.18 0 0 1-.38-.42 1.13 1.13 0 0 1-.16-.54.43.43 0 0 1 .16-.36.42.42 0 0 1 .38 0z"/>
        <ellipse cx="157.13" cy="233.29" rx=".44" ry=".77" transform="rotate(329.84 157.136 233.297)"/>
        <path d="M154.05 230.87a1.18 1.18 0 0 1 .56.94c0 .35-.25.5-.56.32a1.23 1.23 0 0 1-.55-1c0-.34.25-.48.55-.3z"/>
        <ellipse cx="150.95" cy="229.72" rx=".44" ry=".77" transform="rotate(329.84 150.954 229.72)"/>
        <path d="M147.88 227.3a1.2 1.2 0 0 1 .54.94c0 .35-.25.5-.55.32a1.2 1.2 0 0 1-.54-.94c0-.36.25-.5.55-.32z"/>
        <ellipse cx="144.78" cy="226.17" rx=".44" ry=".77" transform="rotate(329.84 144.786 226.167)"/>
        <path d="M138.62 222a1.21 1.21 0 0 1 .55 1c0 .35-.25.49-.55.32a1.24 1.24 0 0 1-.56-.95c0-.46.25-.59.56-.37z"/>
        <ellipse cx="135.52" cy="220.81" rx=".44" ry=".77" transform="rotate(329.84 135.522 220.805)"/>
        <path d="M130.9 220a1.07 1.07 0 0 1 .38.41 1.13 1.13 0 0 1 .16.54.42.42 0 0 1-.16.35.47.47 0 0 1-.4 0 1 1 0 0 1-.37-.42 1.11 1.11 0 0 1-.17-.53.38.38 0 0 1 .17-.35.28.28 0 0 1 .18 0 .37.37 0 0 1 .21 0zm27.66 16a1.17 1.17 0 0 1 .54 1c0 .33-.23.48-.54.3a1.24 1.24 0 0 1-.55-.94c.06-.36.3-.44.55-.32zm-3.03-1.78a1.22 1.22 0 0 1 .54.95.34.34 0 0 1-.55.31 1.2 1.2 0 0 1-.54-.94c0-.35.25-.5.55-.32zm-3.09-1.79a1.28 1.28 0 0 1 .55 1c0 .34-.25.48-.55.32a1.18 1.18 0 0 1-.54-1c0-.35.23-.5.54-.32zm-3.09-1.78a1.19 1.19 0 0 1 .55.95c0 .35-.25.49-.55.31a1.18 1.18 0 0 1-.55-.94c0-.35.25-.49.55-.32zm-3.08-1.77a1.18 1.18 0 0 1 .55.94c0 .34-.25.48-.55.32a1.26 1.26 0 0 1-.56-1c0-.34.25-.48.56-.3zm-3.09-1.79a1.2 1.2 0 0 1 .54.94c0 .35-.23.5-.55.32a1.22 1.22 0 0 1-.54-.95c0-.35.25-.49.55-.31zm-3.1-1.78a1.19 1.19 0 0 1 .56.94c0 .35-.25.5-.56.32a1.24 1.24 0 0 1-.54-1c0-.34.25-.48.54-.3zm-3.08-1.79a1.21 1.21 0 0 1 .55.94c0 .35-.25.5-.55.32a1.16 1.16 0 0 1-.54-.94c-.03-.41.23-.5.54-.32zm-3.09-1.78a1.24 1.24 0 0 1 .56.95c0 .34-.25.49-.56.31a1.24 1.24 0 0 1-.55-.94c0-.35.3-.5.55-.32zm-1.49 1.01a1.42 1.42 0 0 1 .4.41 1.15 1.15 0 0 1 .15.54.36.36 0 0 1-.15.35.41.41 0 0 1-.4 0 1.31 1.31 0 0 1-.39-.42 1.24 1.24 0 0 1-.15-.53.36.36 0 0 1 .15-.35.34.34 0 0 1 .2 0zM154 235.24a1.21 1.21 0 0 1 .55.94c0 .35-.25.5-.55.32a1.23 1.23 0 0 1-.55-1c0-.34.25-.48.55-.3z"/>
        <ellipse cx="150.95" cy="234.1" rx=".44" ry=".77" transform="rotate(329.84 150.949 234.098)"/>
        <path d="M147.87 231.73a1.22 1.22 0 0 1 .54 1c0 .33-.25.49-.54.31a1.18 1.18 0 0 1-.55-.94c0-.41.25-.56.55-.32z"/>
        <ellipse cx="141.68" cy="228.75" rx=".44" ry=".77" transform="rotate(329.84 141.68 228.754)"/>
        <path d="M138.6 226.33a1.22 1.22 0 0 1 .56.94c0 .35-.25.49-.56.32a1.22 1.22 0 0 1-.54-1c0-.35.24-.45.54-.31z"/>
        <ellipse cx="135.51" cy="225.18" rx=".44" ry=".77" transform="rotate(329.84 135.517 225.183)"/>
        <path d="M130.81 224.33a1.18 1.18 0 0 1 .39.41 1 1 0 0 1 .15.54.36.36 0 0 1-.15.35.41.41 0 0 1-.4 0 1.07 1.07 0 0 1-.37-.42 1 1 0 0 1-.17-.54.43.43 0 0 1 .17-.36h.18a.65.65 0 0 1 .2.02zm27.75 16.06a1.1 1.1 0 0 1 .54.94c0 .34-.23.5-.54.32a1.25 1.25 0 0 1-.55-1c0-.34.29-.48.55-.3zm-3.04-1.75a1.22 1.22 0 0 1 .54.94c0 .35-.25.49-.55.32a1.2 1.2 0 0 1-.51-.9c0-.44.22-.58.52-.36zm-3.08-1.82a1.16 1.16 0 0 1 .53.94c0 .34-.24.5-.55.32a1.22 1.22 0 0 1-.54-.94c0-.36.24-.5.56-.32zm-3.1-1.82a1.24 1.24 0 0 1 .55.94c0 .35-.25.5-.55.32a1.22 1.22 0 0 1-.56-.94c0-.32.22-.47.56-.32zm-3.09-1.75a1.22 1.22 0 0 1 .56.95c0 .35-.25.49-.56.32a1.23 1.23 0 0 1-.55-1c.01-.31.3-.41.55-.27zm-3.08-1.79a1.24 1.24 0 0 1 .54 1c0 .34-.24.48-.56.3a1.26 1.26 0 0 1-.54-.94c0-.36.25-.48.56-.32zm-3.09-1.78a1.17 1.17 0 0 1 .54.95c0 .35-.25.49-.55.32a1.23 1.23 0 0 1-.54-.95c0-.36.25-.49.55-.32zm-3.08-1.77a1.17 1.17 0 0 1 .56.94c0 .35-.25.48-.56.32a1.24 1.24 0 0 1-.54-1c0-.34.24-.48.54-.3zm-3.1-1.72a1.21 1.21 0 0 1 .55.94c0 .35-.25.5-.55.32a1.19 1.19 0 0 1-.55-.95c0-.42.31-.56.55-.31zm-1.49.94a1.3 1.3 0 0 1 .4.41 1.25 1.25 0 0 1 .15.55.34.34 0 0 1-.27.39.3.3 0 0 1-.28-.09 1.15 1.15 0 0 1-.39-.4 1 1 0 0 1-.15-.54.37.37 0 0 1 .16-.36h.18a.71.71 0 0 1 .2.04zm24.77 14.28a1.2 1.2 0 0 1 .54.94c0 .35-.25.48-.55.32a1.24 1.24 0 0 1-.54-1c-.06-.3.19-.48.55-.3zm-3.18-1.8a1.21 1.21 0 0 1 .55 1c0 .34-.25.49-.55.31a1.22 1.22 0 0 1-.56-.95c.03-.4.28-.52.56-.36zm-3.06-1.77a1.15 1.15 0 0 1 .55.94c0 .35-.24.5-.55.32a1.23 1.23 0 0 1-.55-.95c0-.35.25-.49.55-.31zm-3.08-1.78a1.17 1.17 0 0 1 .54.94.34.34 0 0 1-.54.32 1.26 1.26 0 0 1-.56-1c0-.34.2-.48.56-.3zm-3.13-1.79a1.2 1.2 0 0 1 .54.94c0 .35-.25.5-.55.32a1.2 1.2 0 0 1-.54-.94c.04-.36.27-.5.55-.32zm-3.06-1.78a1.22 1.22 0 0 1 .56.94.34.34 0 0 1-.56.32 1.24 1.24 0 0 1-.55-.94c0-.36.26-.5.55-.32zm-3.08-1.79a1.23 1.23 0 0 1 .55 1c0 .34-.25.48-.55.3a1.16 1.16 0 0 1-.54-.94c0-.36.23-.48.54-.32zm-3.09-1.7a1.17 1.17 0 0 1 .54.95c0 .35-.23.49-.54.31a1.21 1.21 0 0 1-.55-.94c0-.4.25-.53.55-.32zm-4.7-.29a1.35 1.35 0 0 1 .39.4 1 1 0 0 1 .15.54.38.38 0 0 1-.15.36.39.39 0 0 1-.39 0 1 1 0 0 1-.39-.41 1.1 1.1 0 0 1-.16-.53.39.39 0 0 1 .16-.36.28.28 0 0 1 .18 0 .37.37 0 0 1 .21 0zm27.76 16.05a1.22 1.22 0 0 1 .56.94.34.34 0 0 1-.56.32 1.24 1.24 0 0 1-.55-.94c-.01-.36.28-.5.55-.32zm-3.05-1.76a1.24 1.24 0 0 1 .54 1 .33.33 0 0 1-.54.3 1.17 1.17 0 0 1-.56-.94.34.34 0 0 1 .56-.32z"/>
        <ellipse cx="152.42" cy="241.84" rx=".44" ry=".77" transform="rotate(329.84 152.425 241.84)"/>
        <path d="M149.32 239.4a1.22 1.22 0 0 1 .56 1c0 .33-.25.48-.56.3a1.18 1.18 0 0 1-.55-.94.34.34 0 0 1 .3-.38.32.32 0 0 1 .25.06z"/>
        <ellipse cx="146.23" cy="238.28" rx=".44" ry=".77" transform="rotate(329.84 146.239 238.282)"/>
        <path d="M143.15 235.88a1.22 1.22 0 0 1 .54 1c0 .35-.23.5-.54.32a1.23 1.23 0 0 1-.55-1c0-.32.25-.53.55-.32z"/>
        <ellipse cx="140.06" cy="234.69" rx=".44" ry=".77" transform="rotate(329.84 140.062 234.687)"/>
        <path d="M137 232.28a1.2 1.2 0 0 1 .54.94c0 .35-.25.49-.55.32a1.24 1.24 0 0 1-.54-1c-.02-.3.23-.44.55-.26z"/>
        <ellipse cx="133.88" cy="231.14" rx=".44" ry=".77" transform="rotate(329.84 133.889 231.153)"/>
        <path d="M132.39 231.51a1.05 1.05 0 0 1 .4.41 1 1 0 0 1 .15.54.37.37 0 0 1-.15.35.47.47 0 0 1-.4 0 1.07 1.07 0 0 1-.37-.42 1 1 0 0 1-.17-.54.35.35 0 0 1 .17-.34.28.28 0 0 1 .18 0z"/>
        <ellipse cx="157.1" cy="246.41" rx=".44" ry=".77" transform="rotate(329.84 157.102 246.424)"/>
        <path d="M154 244a1.17 1.17 0 0 1 .56.94.34.34 0 0 1-.56.32 1.25 1.25 0 0 1-.55-1c0-.34.25-.48.55-.3z"/>
        <ellipse cx="150.92" cy="242.85" rx=".44" ry=".77" transform="matrix(.86 -.5 .5 .86 -101.58 108.7)"/>
        <path d="M147.84 240.43a1.2 1.2 0 0 1 .56.95.34.34 0 0 1-.56.31 1.24 1.24 0 0 1-.55-.94c0-.36.21-.5.55-.32z"/>
        <ellipse cx="142.93" cy="238.44" rx=".44" ry=".77" transform="rotate(329.83 142.96 238.467)"/>
        <ellipse cx="141.66" cy="237.51" rx=".44" ry=".77" transform="rotate(329.84 141.652 237.504)"/>
        <path d="M138.59 235.07a1.31 1.31 0 0 1 .54 1c0 .34-.25.48-.56.32a1.2 1.2 0 0 1-.53-1c-.04-.34.24-.48.55-.32z"/>
        <ellipse cx="135.49" cy="233.94" rx=".44" ry=".77" transform="rotate(329.84 135.483 233.951)"/>
        <path d="M130.79 233.11a1.1 1.1 0 0 1 .38.42.93.93 0 0 1 .17.53c0 .17 0 .3-.17.35a.37.37 0 0 1-.38 0 1 1 0 0 1-.39-.41 1.31 1.31 0 0 1-.17-.54.45.45 0 0 1 .17-.36h.18a.5.5 0 0 1 .21.01zm27.77 16.02a1.21 1.21 0 0 1 .56 1c0 .35-.25.49-.56.32a1.23 1.23 0 0 1-.55-1c-.01-.36.28-.45.55-.32zm-3.07-1.77a1.17 1.17 0 0 1 .56.94.35.35 0 0 1-.56.32 1.2 1.2 0 0 1-.54-.94c.05-.36.24-.5.54-.32zm-3.08-1.8a1.2 1.2 0 0 1 .54.94c0 .35-.24.5-.54.32a1.22 1.22 0 0 1-.56-.94c0-.32.24-.49.56-.32zm-3.1-1.77a1.16 1.16 0 0 1 .55.94c0 .35-.25.5-.55.32a1.21 1.21 0 0 1-.55-1c0-.34.26-.48.55-.3zm-3.09-1.79a1.23 1.23 0 0 1 .56 1c0 .33-.25.48-.56.3a1.17 1.17 0 0 1-.54-.94c0-.36.25-.49.54-.32zm-3.08-1.78a1.21 1.21 0 0 1 .55 1c0 .33-.25.48-.55.3a1.18 1.18 0 0 1-.55-.94c0-.36.25-.51.55-.32zm-3.09-1.78a1.15 1.15 0 0 1 .54.95c0 .35-.23.48-.54.3a1.18 1.18 0 0 1-.55-.94c0-.36.25-.48.55-.31zm-3.05-1.79a1.24 1.24 0 0 1 .54 1c0 .34-.25.48-.55.31a1.18 1.18 0 0 1-.54-.95c-.02-.4.22-.52.55-.36zm-3.13-1.77a1.15 1.15 0 0 1 .55.94c0 .35-.24.49-.55.32a1.22 1.22 0 0 1-.54-.95c0-.35.24-.49.54-.31zm-1.48 1a1.14 1.14 0 0 1 .54 1 .39.39 0 0 1-.15.35.47.47 0 0 1-.4 0 1.18 1.18 0 0 1-.38-.42 1 1 0 0 1-.16-.52.39.39 0 0 1 .16-.36.19.19 0 0 1 .18 0 .37.37 0 0 1 .21-.05z"/>
        <ellipse cx="157.09" cy="250.81" rx=".44" ry=".77" transform="matrix(.86 -.5 .5 .86 -104.74 112.88)"/>
        <path d="M154 248.33a1.15 1.15 0 0 1 .55.95c0 .35-.23.49-.55.32a1.24 1.24 0 0 1-.54-1c0-.27.23-.4.54-.27z"/>
        <ellipse cx="149.04" cy="246.36" rx=".44" ry=".77" transform="rotate(329.83 149.064 246.38)"/>
        <path d="M147.83 244.81a1.16 1.16 0 0 1 .55.94.34.34 0 0 1-.3.39.32.32 0 0 1-.25-.07 1.19 1.19 0 0 1-.55-.95c0-.35.22-.49.55-.31z"/>
        <ellipse cx="144.73" cy="243.66" rx=".44" ry=".77" transform="rotate(329.84 144.728 243.667)"/>
        <ellipse cx="141.64" cy="241.88" rx=".44" ry=".77" transform="rotate(329.84 141.646 241.882)"/>
        <path d="M138.57 239.46a1.23 1.23 0 0 1 .54.95c0 .34-.24.49-.55.31a1.2 1.2 0 0 1-.54-.94c0-.36.25-.5.55-.32z"/>
        <ellipse cx="135.48" cy="238.32" rx=".44" ry=".77" transform="rotate(329.84 135.478 238.329)"/>
        <path d="M130.77 237.47a1.07 1.07 0 0 1 .39.4 1.14 1.14 0 0 1 .17.54.35.35 0 0 1-.17.34.35.35 0 0 1-.39 0 .94.94 0 0 1-.38-.41 1.14 1.14 0 0 1-.17-.54.38.38 0 0 1 .17-.35.28.28 0 0 1 .18 0 .46.46 0 0 1 .2 0zm27.79 16.04a1.2 1.2 0 0 1 .56.94c0 .35-.25.5-.56.32a1.21 1.21 0 0 1-.55-1c0-.35.26-.49.55-.31zm-3.08-1.78a1.21 1.21 0 0 1 .55.94c0 .35-.26.5-.55.32a1.2 1.2 0 0 1-.54-.94c0-.35.23-.5.54-.32zm-3.09-1.73a1.14 1.14 0 0 1 .54 1c0 .33-.23.48-.54.3a1.18 1.18 0 0 1-.55-.94c0-.36.25-.55.55-.31zm-3.09-1.84a1.2 1.2 0 0 1 .55.94c0 .35-.25.5-.55.32a1.15 1.15 0 0 1-.54-.94c0-.36.24-.48.54-.32zm-3.08-1.78a1.23 1.23 0 0 1 .54 1c0 .35-.25.48-.55.32a1.24 1.24 0 0 1-.54-1c0-.35.25-.49.55-.32zm-3.09-1.79a1.23 1.23 0 0 1 .55 1c0 .34-.25.48-.55.31a1.22 1.22 0 0 1-.56-1c0-.34.25-.47.56-.31zm-3.13-1.8a1.17 1.17 0 0 1 .54 1c0 .34-.23.48-.54.32a1.25 1.25 0 0 1-.55-1 .35.35 0 0 1 .55-.32zm-3-1.79a1.26 1.26 0 0 1 .54.94c0 .34-.25.48-.56.32a1.28 1.28 0 0 1-.51-.89c-.04-.37.18-.51.53-.37zm-3.13-1.75a1.2 1.2 0 0 1 .54.94c0 .35-.25.5-.55.32a1.22 1.22 0 0 1-.54-.95c0-.35.23-.49.55-.31zm-1.49 1.01a1.22 1.22 0 0 1 .54 1 .39.39 0 0 1-.16.34.36.36 0 0 1-.4 0 .9.9 0 0 1-.37-.4 1.14 1.14 0 0 1-.17-.54.46.46 0 0 1 .17-.36h.39z"/>
        <ellipse cx="157.08" cy="255.18" rx=".44" ry=".77" transform="matrix(.86 -.5 .5 .86 -106.94 113.46)"/>
        <path d="M154 252.75a1.2 1.2 0 0 1 .54.94c0 .35-.24.5-.56.32a1.22 1.22 0 0 1-.54-.95c0-.35.25-.49.56-.31z"/>
        <ellipse cx="150.89" cy="251.61" rx=".44" ry=".77" transform="rotate(329.84 150.886 251.616)"/>
        <path d="M147.81 249.18a1.2 1.2 0 0 1 .56.94c0 .35-.25.5-.56.32a1.22 1.22 0 0 1-.55-.94c0-.36.24-.5.55-.32z"/>
        <ellipse cx="144.73" cy="248.06" rx=".44" ry=".77" transform="rotate(329.84 144.718 248.063)"/>
        <ellipse cx="141.63" cy="246.27" rx=".44" ry=".77" transform="rotate(329.84 141.636 246.278)"/>
        <path d="M138.56 243.83a1.24 1.24 0 0 1 .54 1 .33.33 0 0 1-.54.31 1.21 1.21 0 0 1-.55-.95c-.01-.39.25-.53.55-.36z"/>
        <ellipse cx="135.46" cy="242.7" rx=".44" ry=".77" transform="rotate(329.84 135.454 242.701)"/>
      </g>
      <path d="M161.56 265.27l6.55 3.81-.28-97.16-6.51 8.03z" fill="url(#D)"/>
    </g>
  </g>
  <g class="B">
    <g class="AC">
      <path d="M127.37 20.842l1.321.768a3.68 3.68 0 0 0-3.701.365l-1.321-.768a3.75 3.75 0 0 1 3.701-.365zm-16.274 19.806l-1.321-.768a5.68 5.68 0 0 0 2.558-4.385l1.321.768a5.68 5.68 0 0 1-2.558 4.385z"/>
      <path d="M111.602 33.893l1.321.768c.517.361.797.975.731 1.602l-1.321-.768c.066-.627-.214-1.241-.731-1.602zm-2.305 6.933l-1.321-.768a1.78 1.78 0 0 0 1.799-.178l1.321.768a1.78 1.78 0 0 1-1.799.178z"/>
      <path d="M110.797 32.263l1.321.768.009 1.462-1.321-.768z"/>
      <path d="M110.506 31.617l1.321.768a.7.7 0 0 1 .29.646l-1.321-.768a.71.71 0 0 0-.29-.646zM51.332 75.154l-1.34-.778a5.69 5.69 0 0 0 2.558-4.385l1.321.768a5.69 5.69 0 0 1-2.539 4.394z"/>
      <path d="M51.866 68.399l1.321.768c.515.363.795.975.731 1.602l-1.321-.768a1.74 1.74 0 0 0-.731-1.602zm-2.333 6.914l-1.321-.759a1.79 1.79 0 0 0 1.78-.178l1.321.768a1.78 1.78 0 0 1-1.78.169z"/>
      <path d="M51.032 66.778l1.321.759v1.462l-1.321-.768z"/>
      <path d="M50.732 66.122l1.321.768a.73.73 0 0 1 .3.646l-1.321-.759a.74.74 0 0 0-.3-.656zM30.233 81.103l1.321.768.019 5.687-1.321-.768zm93.446-59.895l1.321.768-88.293 50.976-1.321-.768z"/>
    </g>
    <path d="M124.99 21.976c2.867-1.649 5.2-.337 5.19 2.961v5.678L31.573 87.558v-5.687a11.32 11.32 0 0 1 5.144-8.919zm-13.894 18.672a5.68 5.68 0 0 0 2.605-4.385c0-1.199-.637-1.874-1.527-1.771v-1.462c0-.637-.459-.937-1.021-.572a2.21 2.21 0 0 0-1.012 1.752v1.452a5.5 5.5 0 0 0-1.518 3.541c0 1.611 1.124 2.249 2.53 1.443M51.388 75.154c1.494-.979 2.441-2.603 2.558-4.385 0-1.19-.646-1.874-1.537-1.771v-1.462c0-.637-.468-.937-1.021-.581-.599.394-.977 1.046-1.021 1.761v1.462a5.5 5.5 0 0 0-1.518 3.532c0 1.611 1.134 2.258 2.539 1.443"
          class="AB"/>
    <path d="M31.564 81.872l-1.321-.768c.188-3.625 2.1-6.941 5.144-8.919l1.321.768a11.32 11.32 0 0 0-5.144 8.919z" class="AC"/>
  </g>
  <path d="M48.062 325.126l11.205 6.568 5.443 1.677.731 58.359-17.379-10.896z" fill="#4c7794"/>
  <path d="M215.401 291.258l-2.249-245.925-148.441 87.759.572 244.36z" fill="#e5e5e7"/>
  <path d="M48.062 307.129l7.111-6.989V126.927l9.538 6.165.572 244.36-17.22-10.802z" fill="#b5b5b5"/>
  <path d="M213.152 45.333L64.711 133.091l-9.538-6.165 149.163-86.812z" fill="#d5d4d7"/>
  <path d="M153.772 345.738l61.797-40.661 1.546-257.439-3.954-2.305-104.285 61.648v152.554l3.954 2.736 36.998 6.315v74.427z" fill="#4c7794"/>
  <path d="M153.772 271.311v74.427l65.751-37.935-2.408-260.166-104.285 62.069V262.27z" fill="#60b4d8"/>
  <g class="AB">
    <path d="M133.132 132.745l63.184-36.473.112 39.818-63.175 36.904z"/>
    <path d="M169.821 113.979l25.596-14.4v35.527l-25.596 14.4z"/>
  </g>
  <path d="M172.36 137.411l-.009-1.893 4.656-2.689.009 1.893zm-.01-7.608l-.009-1.902 4.656-2.68.009 1.893zm-.009-6.699l-.009-1.902 4.656-2.689v1.902z" class="y"/>
  <path d="M196.429 136.127v-.037l-.112-39.818-63.184 36.473.122 40.249v.037l-.44.253v-.037l-.112-40.736 64.046-36.979.122 40.305v.047z" class="AB"/>
  <path d="M189.018 111.609c.534-.309.937-.066.937.553a2.136 2.136 0 0 1-.937 1.686c-.534.309-.937.056-.937-.562a2.127 2.127 0 0 1 .937-1.677z" class="y"/>
  <path d="M184.568 114.728c.272-.15.497 0 .497.29a1.096 1.096 0 0 1-.487.853c-.281.159-.497 0-.497-.281a1.068 1.068 0 0 1 .487-.862z" fill="url(#Q)"/>
  <path d="M184.568 121.577c.272-.159.497 0 .497.281a1.077 1.077 0 0 1-.487.853c-.281.159-.497 0-.497-.281a1.068 1.068 0 0 1 .487-.853z" fill="url(#F)"/>
  <path d="M184.568 129.222c.272-.159.497 0 .497.281a1.096 1.096 0 0 1-.487.853c-.281.159-.497 0-.497-.281a1.059 1.059 0 0 1 .487-.853z" fill="url(#G)"/>
  <path d="M189.018 118.504c.534-.309.937-.066.937.553a2.155 2.155 0 0 1-.937 1.686c-.534.309-.937.056-.937-.562a2.127 2.127 0 0 1 .937-1.677zm0 7.523c.534-.309.937-.066.937.553a2.136 2.136 0 0 1-.937 1.686c-.534.309-.937.056-.937-.553a2.127 2.127 0 0 1 .937-1.686z"
        class="y"/>
  <g fill="#32b24a">
    <use xlink:href="#U"/>
    <path d="M180.323 123.423c.534-.309.937-.056.937.562a2.164 2.164 0 0 1-.937 1.677c-.534.309-.937.066-.937-.553a2.136 2.136 0 0 1 .937-1.686z"/>
  </g>
  <use xlink:href="#U" y="14.409" fill="#ea425f"/>
  <path d="M159.665 146.414l6.755-3.907v1.077l-6.746 3.869zm6.39-2.745v-.703l-6.015 3.476v.693l6.015-3.466" class="y"/>
  <path transform="matrix(.936892 0 0 .936892 -108.34252 -25.871054)" d="M286.46 184.66v-.74l6.42-3.71v.75z" fill="url(#R)"/>
  <path d="M157.613 148.541v-.768l1.986-1.152.009.768zm-4.516 2.604v-.768l1.949-1.124v.768zm9.266-11.814l-1.808 1.04-.909-1.274.899-2.314 1.808-1.04.909 1.265zm-2.848 3.542l-1.808 1.049-.899-1.293.89-2.305 1.808-1.049.909 1.274zm-2.829 3.532l-1.799 1.04-.909-1.274.899-2.333 1.799-1.04.909 1.284zm-.01-3.795l-1.808 1.049-.909-1.284.909-2.314 1.799-1.04.909 1.265zm-2.839 3.551l-1.818 1.049-.918-1.284.899-2.323 1.827-1.049.899 1.274z"
        class="z"/>
  <path d="M159.609 129.887l6.755-3.897v1.068l-6.755 3.897zm6.39-3.036v-.234l-6.015 3.476v.225l6.015-3.467" class="y"/>
  <path d="M157.566 131.977v-.768l1.986-1.152v.768zm-3.747 10.352l-1.818 1.049-.909-1.284.899-2.314 1.818-1.049.909 1.274zm-8.264 10.053a6.558 6.558 0 0 1 .056.824 4.825 4.825 0 0 1-.084.937 2.811 2.811 0 0 1-.562 1.368 1.799 1.799 0 0 1-.525.431.984.984 0 0 1-.534.187.384.384 0 0 1-.356-.206 1.002 1.002 0 0 1-.206-.534 6.558 6.558 0 0 1-.047-.787 3.654 3.654 0 0 1 .075-.937 2.68 2.68 0 0 1 .215-.768 2.539 2.539 0 0 1 .356-.6 1.78 1.78 0 0 1 .515-.431.984.984 0 0 1 .534-.178.365.365 0 0 1 .356.187.937.937 0 0 1 .206.506zm-.478 2.398a3.86 3.86 0 0 0 .187-1.349 3.176 3.176 0 0 0 0-.543l-1.443 2.342a.59.59 0 0 0 .253.365.478.478 0 0 0 .431-.066 1.349 1.349 0 0 0 .6-.75m-1.387-.159v.234l1.443-2.333a.665.665 0 0 0-.244-.356.478.478 0 0 0-.44.075 1.274 1.274 0 0 0-.59.75 3.841 3.841 0 0 0-.197 1.349v.281"
        class="z"/>
  <path d="M143.766 155.23l1.443-2.342a3.176 3.176 0 0 1 0 .543 3.86 3.86 0 0 1-.187 1.349 1.349 1.349 0 0 1-.6.75.478.478 0 0 1-.431.066.59.59 0 0 1-.225-.365z" fill="url(#S)"/>
  <path d="M144.89 152.139a.665.665 0 0 1 .244.356l-1.452 2.361v-.234-.281a3.841 3.841 0 0 1 .197-1.349 1.274 1.274 0 0 1 .59-.75.478.478 0 0 1 .422-.103z" fill="url(#S)"/>
  <path d="M155.224 133.326l-.009-.768 2.136-1.227v.768zm-2.174 1.255v-.768l1.949-1.124v.768zm-10.643 18.494v.393l-.937 1.874h.084a1.771 1.771 0 0 1 .403-.169.562.562 0 0 1 .328 0 .525.525 0 0 1 .215.187 1.068 1.068 0 0 1 .084.393 1.565 1.565 0 0 1-.112.581 2.286 2.286 0 0 1-.665 1.012 4.085 4.085 0 0 1-.515.384 3.429 3.429 0 0 1-.422.206 1.002 1.002 0 0 1-.347.075l.103-.45a1.031 1.031 0 0 0 .3-.056 1.255 1.255 0 0 0 .384-.178 2.117 2.117 0 0 0 .356-.272 4.45 4.45 0 0 0 .272-.309 1.799 1.799 0 0 0 .178-.356 1.246 1.246 0 0 0 .065-.356c0-.253-.084-.384-.253-.412a1.031 1.031 0 0 0-.637.215l-.3.169v-.272l.937-1.949-1.452.834v-.393z"
        class="z"/>
  <path d="M143.747 148.578l1.443-2.342a3.176 3.176 0 0 1 0 .543 3.748 3.748 0 0 1-.187 1.34 1.368 1.368 0 0 1-.6.759.44.44 0 0 1-.431.056c-.084-.037-.159-.178-.225-.356z"
        fill="url(#S)"/>
  <path d="M145.555 145.73a6.558 6.558 0 0 1 .056.824 4.825 4.825 0 0 1-.084.937 2.68 2.68 0 0 1-.215.768 2.651 2.651 0 0 1-.347.6 1.958 1.958 0 0 1-.525.431.937.937 0 0 1-.534.178.347.347 0 0 1-.356-.197 1.002 1.002 0 0 1-.206-.534 6.23 6.23 0 0 1 0-.787 3.654 3.654 0 0 1 .075-.937 2.811 2.811 0 0 1 .215-.768 2.539 2.539 0 0 1 .356-.6 1.78 1.78 0 0 1 .515-.431.984.984 0 0 1 .534-.178.365.365 0 0 1 .356.187.937.937 0 0 1 .159.506zm-.478 2.389a3.748 3.748 0 0 0 .187-1.34 3.176 3.176 0 0 0 0-.543l-1.443 2.342c.066.178.141.319.253.356a.44.44 0 0 0 .431-.056 1.368 1.368 0 0 0 .6-.759m-1.387-.15v.234l1.443-2.333a.628.628 0 0 0-.244-.356.497.497 0 0 0-.44.066 1.349 1.349 0 0 0-.59.759 3.907 3.907 0 0 0-.197 1.349v.281"
        class="z"/>
  <path d="M144.871 145.515a.628.628 0 0 1 .244.356l-1.433 2.333v-.234-.281a3.907 3.907 0 0 1 .197-1.349 1.349 1.349 0 0 1 .59-.759.497.497 0 0 1 .403-.065z" fill="url(#S)"/>
  <path d="M138.669 155.202c.3-.178.543-.225.684-.112a.75.75 0 0 1 .225.637 3.448 3.448 0 0 1-.422 1.387 19.084 19.084 0 0 1-1.171 2.042l1.705-.984v.393l-2.164 1.255v-.403a3.429 3.429 0 0 1 .262-.403l.347-.562.375-.628c.141-.215.244-.45.337-.665a6.09 6.09 0 0 0 .262-.637 1.518 1.518 0 0 0 .103-.525c0-.225-.056-.365-.159-.431s-.262 0-.459.075a2.23 2.23 0 0 0-.44.319 4.047 4.047 0 0 0-.319.365l-.159-.206a3.541 3.541 0 0 1 .45-.515 5.827 5.827 0 0 1 .543-.403z"
        class="z"/>
  <path d="M137.245 154.687v-.122l10.887-6.277v.122z" class="y"/>
  <path d="M142.389 146.517v.393l-.937 1.874h.084a1.771 1.771 0 0 1 .403-.169.562.562 0 0 1 .328 0 .468.468 0 0 1 .215.187 1.115 1.115 0 0 1 .084.393 1.565 1.565 0 0 1-.112.581 1.874 1.874 0 0 1-.272.553 1.939 1.939 0 0 1-.393.459 4.085 4.085 0 0 1-.515.384c-.159.094-.29.141-.422.206a1.874 1.874 0 0 1-.347.084l.103-.459a1.031 1.031 0 0 0 .3-.056c.112-.056.244-.094.384-.178a2.811 2.811 0 0 0 .356-.272 3.036 3.036 0 0 0 .272-.319 1.265 1.265 0 0 0 .178-.356.937.937 0 0 0 .065-.347c0-.253-.084-.393-.253-.412a1.031 1.031 0 0 0-.637.215l-.3.169v-.281l.937-1.939-1.452.834v-.393zm-3.739 2.043c.3-.169.543-.215.684-.112a.721.721 0 0 1 .225.637 3.438 3.438 0 0 1-.422 1.396 19.084 19.084 0 0 1-1.171 2.042l1.705-.993v.403l-2.164 1.246v-.393a2.811 2.811 0 0 1 .262-.403l.347-.572.375-.628c.141-.206.244-.44.337-.665a5.359 5.359 0 0 0 .262-.637 1.48 1.48 0 0 0 .103-.525.497.497 0 0 0-.159-.431c-.103-.075-.262 0-.459.075a3.401 3.401 0 0 0-.44.319 4.188 4.188 0 0 0-.319.375l-.159-.215a4.122 4.122 0 0 1 .45-.515 5.827 5.827 0 0 1 .543-.403z"
        class="z"/>
  <path d="M137.226 148.344v-.122l10.887-6.287v.122z" class="y"/>
  <path d="M166.991 125.1l-30.458 17.585.047 18.644 30.468-17.623zm-.618.937v1.068l-6.764 3.851v-1.068l6.755-3.897m-8.629 14.334l1.808-1.049.937 1.274-.937 2.323-1.808 1.049-.937-1.293.89-2.305m-1.021 2.286l-1.743 1.096-.937-1.284.937-2.314 1.808-1.04.937 1.265-.937 2.323m2.97-3.513l.937-2.314 1.808-1.04.937 1.265-.937 2.323-1.902.993-.937-1.274m2.811-3.513l.937-2.323 1.818-1.049.89 1.284-.881 2.323-1.818 1.049-.937-1.284m-2.942-5.528v.768l-1.996 1.152v-.768l1.986-1.152m-2.202 1.274v.768l-2.127 1.227v-.768l2.136-1.227m-2.352 1.358v.768l-1.949 1.124v-.768l1.949-1.124m-17.801 15.534l10.887-6.287v.122l-10.793 6.333v-.122m8.329-1.752a4.825 4.825 0 0 1-.084.937 2.68 2.68 0 0 1-.215.768 2.651 2.651 0 0 1-.347.6 1.958 1.958 0 0 1-.525.431.937.937 0 0 1-.534.178.347.347 0 0 1-.356-.197 1.002 1.002 0 0 1-.206-.534c0-.215 0-.487-.056-.787a4.15 4.15 0 0 1 .084-.937 2.811 2.811 0 0 1 .215-.768 2.539 2.539 0 0 1 .356-.6 1.78 1.78 0 0 1 .515-.431.984.984 0 0 1 .534-.178.365.365 0 0 1 .356.187.937.937 0 0 1 .206.506 6.558 6.558 0 0 1 .056.824m-3.682 2.445a1.031 1.031 0 0 0-.637.215l-.3.169v-.281l.937-1.939-1.452.834v-.393l1.93-1.115v.393l-.937 1.874h.084a1.771 1.771 0 0 1 .403-.169.562.562 0 0 1 .328 0 .468.468 0 0 1 .215.187 1.368 1.368 0 0 1 .084.393 1.565 1.565 0 0 1-.112.581 1.874 1.874 0 0 1-.272.553 1.939 1.939 0 0 1-.393.459 4.085 4.085 0 0 1-.515.384c-.159.094-.29.141-.422.206a1.874 1.874 0 0 1-.347.084l.103-.459a1.031 1.031 0 0 0 .3-.056c.112-.056.244-.094.384-.178a2.811 2.811 0 0 0 .356-.272 3.036 3.036 0 0 0 .272-.319 1.265 1.265 0 0 0 .178-.356.937.937 0 0 0 .065-.347c0-.253-.084-.393-.253-.412m-2.811-.075c-.103-.075-.262 0-.459.075a3.401 3.401 0 0 0-.44.319 4.188 4.188 0 0 0-.319.375l-.159-.215a4.122 4.122 0 0 1 .45-.515 5.827 5.827 0 0 1 .543-.403c.3-.169.543-.215.684-.112a.721.721 0 0 1 .225.637 3.438 3.438 0 0 1-.422 1.396 19.084 19.084 0 0 1-1.171 2.042l1.705-.993v.403l-2.164 1.246v-.393a2.164 2.164 0 0 1 .262-.403l.347-.571.375-.628c.141-.206.244-.44.337-.665a5.359 5.359 0 0 0 .262-.637 1.668 1.668 0 0 0 .103-.525.497.497 0 0 0-.159-.431m-1.508 10.896v-.403a3.429 3.429 0 0 1 .262-.403l.347-.562.375-.628c.141-.215.244-.45.337-.665a6.09 6.09 0 0 0 .262-.637 1.518 1.518 0 0 0 .103-.525c0-.225-.056-.365-.159-.431s-.262 0-.459.075a2.23 2.23 0 0 0-.44.319 4.047 4.047 0 0 0-.319.365l-.159-.206a3.541 3.541 0 0 1 .45-.515 5.827 5.827 0 0 1 .543-.403c.3-.178.543-.225.684-.112a.75.75 0 0 1 .225.637 3.448 3.448 0 0 1-.422 1.387 19.084 19.084 0 0 1-1.171 2.042l1.705-.984v.393l-2.164 1.255m4.919-3.485a2.286 2.286 0 0 1-.665 1.012 4.085 4.085 0 0 1-.515.384 3.429 3.429 0 0 1-.422.206 1.002 1.002 0 0 1-.347.075l.103-.45a1.031 1.031 0 0 0 .3-.056 1.255 1.255 0 0 0 .384-.178 2.117 2.117 0 0 0 .356-.272 4.27 4.27 0 0 0 .272-.309 1.799 1.799 0 0 0 .178-.356 1.246 1.246 0 0 0 .065-.356c0-.253-.084-.384-.253-.412a1.031 1.031 0 0 0-.637.215l-.3.169v-.272l.937-1.949-1.452.834v-.393l1.93-1.115v.393l-.937 1.874h.084a1.771 1.771 0 0 1 .403-.169.562.562 0 0 1 .328 0 .525.525 0 0 1 .215.187 1.302 1.302 0 0 1 .084.394 1.565 1.565 0 0 1-.112.581m3.054-2.22a2.811 2.811 0 0 1-.562 1.368 1.799 1.799 0 0 1-.525.431.984.984 0 0 1-.534.187.384.384 0 0 1-.356-.206 1.002 1.002 0 0 1-.206-.534 6.558 6.558 0 0 1-.047-.787 3.654 3.654 0 0 1 .075-.937 2.68 2.68 0 0 1 .215-.768 2.539 2.539 0 0 1 .356-.6 1.78 1.78 0 0 1 .515-.431.984.984 0 0 1 .534-.178.365.365 0 0 1 .356.187.937.937 0 0 1 .206.506 6.558 6.558 0 0 1 .056.824 4.825 4.825 0 0 1-.084.937m-8.254.581v-.122l10.887-6.287v.066l-10.887 6.287m14.747-14.915l1.818-1.049.937 1.274-.937 2.323-1.818 1.049-.937-1.284.937-2.314m-.89 6.137l.937-2.314 1.818-1.049.937 1.274-.937 2.333-1.818 1.049-.937-1.293m1.996 5.228v-.768l1.949-1.124v.768l-1.949 1.124m2.174-1.255v-.759l2.136-1.237v.768l-2.127 1.227m1.415-3.485l-1.799 1.068-.937-1.274.937-2.333 1.799-1.04.937 1.284-.937 2.323m.937 2.136v-.768l1.986-1.152v.768l-1.996 1.152m2.061-1.059v-1.068l6.755-3.907v1.077l-6.792 3.86"
        fill="url(#S)"/>
  <path d="M155.271 149.89v-.768l2.127-1.227v.768z" class="z"/>
  <path d="M166.008 126.618v.234l-6.015 3.476v-.234z" fill="#bfbfbf"/>
  <g class="B" transform="matrix(.936892 0 0 .936892 -108.34252 -25.871054)">
    <g clip-path="url(#O)">
      <path d="M292.83 163.01l-6.42 3.71v-.25l6.42-3.71v.25" fill="url(#R)"/>
    </g>
  </g>
  <path d="M165.221 135.818l-1.818 1.049-.909-1.284.899-2.323 1.818-1.049.899 1.284z" class="z"/>
  <path d="M136.186 142.498l31.095-17.951.056 19.375-31.095 17.951zm30.861 1.209l-.056-18.635-30.458 17.585.047 18.644 30.468-17.595" class="y"/>
  <path d="M176.473 162.744l-.272 1.312c0-.244.065-.487.103-.731l.084-.487-.375.215-.234.131h0l-.459.281h0a.553.553 0 0 0-.215.375l-.3 1.452c0 .112-.065.234-.103.347l.403-2.099z"
        fill="#105397"/>
  <path d="M173.615 169.836l-.009-.009z" fill="#038844"/>
  <path d="M175.292 168.609l.094-.047.178-.094.112-.066.131-.075-.084.215s0-.094-.056-.075h-.047l-.131.065h-.084 0 0a.693.693 0 0 0-.272.309.553.553 0 0 0 0 .075h0l-.094.131a.693.693 0 0 1 .253-.44z"
        fill="#1a8752"/>
  <g class="B">
    <path d="M180.08 165.958c.272-.047.375.122.309.487-.053.271-.165.527-.328.75l-.159.169c.403.103 0 .731.141 1.04l-.806.459.056-.562c0-.206-.075-.253-.234-.169l-.169.084-.094.066c-.072.056-.127.13-.159.215-.047.187-.056.356-.094.534s-.094.29-.159.328a2.53 2.53 0 0 1-.29.187l-.375.206.131-.778.422-2.061.787-.459.665-.375a1.15 1.15 0 0 1 .356-.122zm-.796 1.452a.56.56 0 0 0 .272-.459c0-.15-.094-.122-.187-.066h-.047-.047 0l-.15.084c-.253.15-.262.215-.319.665l.3-.178.197-.112"
          fill="#028945"/>
    <path d="M178 167.054c-.094.721-.094.721-.646 1.04l-.375.225-.234.131h-.066a.45.45 0 0 0-.234.459l1.152-.665v.29c0 .084-.066.225-.094.347l-1.171.675c0 .131-.047.244-.075.384l1.405-.806-.141.721-2.164 1.255.159-.937.244-1.18.159-.703z"
          fill="#028a43"/>
    <path d="M174.599 167.869l.206.084.225-.094-.056.103-.197.178h0z" fill="#0b4f9e"/>
    <path d="M175.733 163.194h0l.234-.131.375-.215c0 .187-.056.347-.084.487s-.066.487-.103.731l-.543 2.548c-.119.458-.333.886-.628 1.255l-.225.094-.206-.084-.197-.319h.159.131c.122 0 .225.15.412.047h0 0 .056 0 0l-.178-.066h0l-.543-.244.871-.506-.862.169.731-.712h0l-.74.431.403-.703h0l-.328.234c0-.103.066-.169.084-.244l.103-.347.3-1.452c.018-.149.096-.284.215-.375h0c.15-.103.3-.187.459-.281z"
          fill="#024da0"/>
    <path d="M174.664 167.485l.262-.056h0l.084-.056.178.066h0 0-.047 0 0 0c-.253.197-.356.066-.478.047z" fill="#114f97"/>
    <path d="M174.084 167.869h.047l.609.244h0l-.515.581-.131-.581c-.037-.197 0-.15-.009-.244z" fill="#0b4f9e"/>
    <path d="M173.784 168.187l.075.141.3.45-.431.328-.122.066v-.169l.178-.815z" fill="#084aa1"/>
    <path d="M177.737 161.995l.768-.431c.047 0 .112 0 .141.084l.581 1.227.215.562h0l.197-1.087.169-.815.169-.824 1.415-.824-.422 2.174-.487 2.502c-.01.059-.01.119 0 .178-.023.054-.039.111-.047.169 0 .189-.11.36-.281.44h-.047l-.478.262-.515.309h0c-.131.075-.197 0-.244-.066l-.45-1.002-.356-.796-.253 1.396-.29 1.368-1.415.815 1.049-5.322z"
          fill="#014d9f"/>
    <path d="M173.231 168.946c0 .141-.066.281-.094.412h.066.112 0 0c.094-.056.131-.141.159-.3h0 .084v.206l-.609.384v-.244z" fill="#155395"/>
    <path d="M173.39 168.581c.178 0 .122.244.131.403h0c0 .159-.066.244-.159.3h0 0-.112-.066c0-.131.066-.272.094-.412s.047-.15.112-.29z" fill="#0d52a0"/>
    <path d="M175.667 168.468l.056.075c.056.075-.056.197-.094.3l-1.049 2.717-.768.45v-1.284h0l-.459 1.396a.43.43 0 0 1-.206.29h0l-.244.141-.375.215-.131-2.089v-.328l.778-.45v1.48h0c-.005-.059-.005-.119 0-.178l.459-1.377c.095-.224.259-.411.468-.534a1.2 1.2 0 0 1 .319-.131v1.312h0l.497-1.34s.075-.094.094-.131c-.003-.028-.003-.056 0-.084.057-.128.152-.236.272-.309h0 .047.084l.131-.066h.047z"
          fill="#038844"/>
    <path d="M173.512 164.449l-.244 1.349-.056.131h-.206c0 .206.066.365.094.581l-.562-.169v.066l.197.281v.197a1.79 1.79 0 0 0-.262.066h0l-.084.122.15.169c.004.015.004.031 0 .047.001.089-.051.169-.131.206h0-.075l-.112.066h0l-.131.084-.159.084v.084l.225-.112h.431.178l-.487.506-.431.384.796-.459.122-.056-.506.853h0l.59-.609c.058-.064.121-.123.187-.178l-.112.309-.309.703h.056l.393-.618c.045-.051.099-.092.159-.122 0 .253-.066.506-.094.75v.244l-.618.244-.187-.178-.141.131h-.15-.206a2.49 2.49 0 0 1-.262-.356v-.45l.693-3.635z"
          fill="#024ea0"/>
    <path d="M172.725 166.726l.159.29-.515.103.075-.122h0a1.79 1.79 0 0 1 .262-.066z" fill="#145293"/>
    <path d="M172.491 167.288l.225.084v.075l-.646.375-.225.112v-.084l.159-.084.131-.084h0l.112-.066h.075 0c.08-.037.132-.118.131-.206.004-.015.004-.031 0-.047z" fill="#0f4e85"/>
  </g>
  <path d="M171.695 170.792c.309 0 .468.244.431.665a3.401 3.401 0 0 1-1.452 2.417l-.122.075-.159.084c-.412.225-.731.234-.937-.141a2.811 2.811 0 0 1 .319-1.546 3.616 3.616 0 0 1 1.274-1.349 1.387 1.387 0 0 1 .646-.206zm-.365 1.18c0-.309-.122-.393-.384-.253h0a1.743 1.743 0 0 0-.656 1.284c0 .281.15.375.375.244a.393.393 0 0 0 .112-.075 1.752 1.752 0 0 0 .581-1.218"
        fill="#038942"/>
  <path d="M171.029 166.557c0 .215.056.422.094.656l-1.424.824-.103-.215h0 0c.047.178.159.15.29.075h0 0l.075-.047.253-.15.103-.056h.047 0l.169-.094.187-.112h0a.253.253 0 0 0 .141-.244h0 0a.497.497 0 0 1 0-.122c.159-.272.169-.393.169-.515z"
        fill="#0f4a8b"/>
  <path d="M169.502 166.642a2.68 2.68 0 0 1 1.134-.384.337.337 0 0 1 .393.3v.365a.497.497 0 0 0 0 .122h0a.262.262 0 0 1-.141.253h0l-.187.112-.169.094h0-.047l-.103.056-.253.15-.075.047h0 0c-.131.075-.244.103-.29-.075h0a.937.937 0 0 0-.44.075.806.806 0 0 0-.215.197.937.937 0 0 1-.094-.375 1.068 1.068 0 0 1 .187-.562l-.234.131h0l.215-.234h-.112c.028-.01.234-.15.431-.272z"
        fill="#024da0"/>
  <g class="B">
    <path d="M170.636 169.864l-.543.862.347-.572c.06-.1.126-.197.197-.29z" class="AD"/>
    <path d="M169.558 172.553c-.015.361-.121.712-.309 1.021a2.81 2.81 0 0 1-.862.806h-.047l-.112.066-.112.056c-.092.047-.172.115-.234.197a2.7 2.7 0 0 0-.15.656c-.015.074-.051.142-.103.197l-.328.197-.356.197c0-.159.056-.3.084-.431l.384-2.042c0-.112.056-.234.084-.337l.937-.543.656-.365c.225-.112.412.056.468.328zm-1.002 1.134a.47.47 0 0 0 .187-.45c0-.056-.141-.056-.225 0l-.225.103c-.169.103-.187.197-.253.572.005.053.005.106 0 .159l.543-.365"
          fill="#028944"/>
    <path d="M168.893 167.054h.112l-.215.234h0l.234-.131a1.07 1.07 0 0 0-.187.562c.005.13.037.258.094.375-.131.141-.319.281-.309.478s.197.084.337.056l1.002-.272c.226-.042.458-.042.684 0 .13.056.219.178.234.319.05.414-.039.832-.253 1.19v-.112c0-.037 0-.103-.122-.066h0c-.197.122-.169.319-.215.487-.07.021-.139.046-.206.075h0 0 0 0c-.115.115-.24.218-.375.309h0a.6.6 0 0 1-.44.084h0c.272-.29.319-.365.319-.562s-.094-.187-.215-.15l-.937.244a2.71 2.71 0 0 1-.609 0c-.384 0-.515-.309-.412-.862.101-.515.326-.997.656-1.405a4.02 4.02 0 0 1 .824-.853z"
          class="AD"/>
    <path d="M167.947 170.876l.225.328a.28.28 0 0 0 0 .112c0 .103.094.094.159.056l.169-.084h0c.124-.069.227-.169.3-.29v-.075l.244-.187h0a.56.56 0 0 0 .431-.084h0c.134-.091.26-.195.375-.309h0 0 0 0c.067-.029.136-.054.206-.075.047-.169 0-.365.206-.478h0c.094 0 .122 0 .122.066v.112c-.071.093-.137.19-.197.29l-.347.572a5.62 5.62 0 0 1-1.593 1.443 3.4 3.4 0 0 1-1.284.45 1.18 1.18 0 0 1-.356-.056c-.101-.156-.153-.339-.15-.525-.009-.147-.009-.294 0-.44z"
          fill="#014ea0"/>
    <path d="M168.172 171.232l.656-.29v.075c-.073.121-.176.222-.3.29h0l-.169.084c-.066 0-.159.047-.159-.056a.28.28 0 0 1-.028-.103z" class="AD"/>
    <path d="M168.041 170.792c0 .272.131.431.412.281l.253-.131a1.45 1.45 0 0 0 .675-.75c0 .197-.047.272-.319.562l-.244.187-.656.29-.225-.328-1.199.693c-.009.147-.009.294 0 .44-.003.186.049.369.15.525-.3-.122-.319-.487-.234-.937z"
          fill="#0e4d97"/>
  </g>
  <path d="M161.482 171.41v.197c-.056 0-.103-.075-.159-.047l-1.396.806-1.387.796h0 0l-1.677.937-1.761 1.012h0l-.122.337.056-.347z" fill="#114a81"/>
  <path d="M160.115 175.177h.084l-1.115.646h0l-1.096.628-1.115.646-.225.084z" fill="#0f468a"/>
  <path d="M159.937 176.498l-.094.562-.712.422-2.586 1.49c-.328.187-.328.187-.422.609a1.04 1.04 0 0 1 0-.159c0-.187.084-.3.3-.422l.834-.478.768-.45h0l.712-.403.721-.412h0 0a.609.609 0 0 0 .356-.543s.103-.215.122-.215z"
        fill="#104b87"/>
  <path d="M153.303 183.44v.375l7.87-4.553a1.209 1.209 0 0 1-.169.15l-5.293 3.054-2.37 1.368-.141.065.103-.459z" fill="#0f4c82"/>
  <path d="M165.174 169.256l.581-.337c0 .131 0 .262.047.393l-.122-.309-2.323 1.33s0-.075.065-.084z" fill="#0e4e82"/>
  <path d="M166.785 175.608v.431l-2.342 1.358-.056-.159c0-.281 0-.562-.075-.853l-.215.112-1.077.618-1.124.656a.703.703 0 0 0-.234.281l-.534 1.209-7.87 4.553v-.375l1.246-6.427.309-1.48.122-.337 1.864-1.04 1.677-.937 1.415-.824 1.396-.806c.056 0 .103 0 .159.047l-.403 2.071-4.244 2.417-.15 1.068.225-.084 1.115-.646 1.096-.628 1.134-.656-.262 1.284c0 .056-.056.122-.066.169a.609.609 0 0 1-.356.543l-.768.44-.712.403-.796.468-.834.478c-.215.122-.3.234-.3.422a1.04 1.04 0 0 0 0 .159l-.141.74.206-.122.281-.15.656-.384.787-.459 1.874-1.077a.853.853 0 0 0 .375-.45q1.555-3.588 3.139-7.158a.75.75 0 0 1 .075-.15l2.295-1.33.122.309.281 1.743.646 4.244zm-4.085.084l1.48-.853-.178-1.752v-.328l-1.265 2.932"
        fill="#014d9f"/>
  <path d="M171.432 169.349a2.492 2.492 0 0 0 .262.356h.206.15l.141-.131.187.178c-.59.272-.909.094-.946-.403z" fill="#0a4d95"/>
</svg>